<?xml version="1.0" encoding="UTF-8" standalone="no"?>
<svg width="136px" height="66px" viewBox="0 0 136 66" version="1.1" xmlns="http://www.w3.org/2000/svg"
     xmlns:xlink="http://www.w3.org/1999/xlink" xmlns:sketch="http://www.bohemiancoding.com/sketch/ns">
    <!-- Generator: Sketch 3.0.4 (8054) - http://www.bohemiancoding.com/sketch -->
    <path d="M86.577,57.992 L92.768,57.992 C105.012,57.992 110.602,49.996 110.602,41.915 C110.602,34.381 104.469,28.274 96.922,28.274 C96.065,28.274 95.204,28.361 94.375,28.506 C92.456,23.291 87.44,19.595 81.557,19.595 C80.788,19.595 80.012,19.653 79.297,19.766 C77.2,12.745 70.69,7.648 62.98,7.648 C55.185,7.648 48.585,12.886 46.579,20.052 C45.749,19.939 44.862,19.88 43.969,19.88 C33.446,19.88 24.903,28.415 24.903,38.934 C24.903,49.648 33.564,57.992 44.142,57.992 L86.577,57.992 L86.577,57.992 Z M98.561,21.085 C109.34,21.914 117.827,30.942 117.827,41.915 C117.827,56.185 106.674,65.24 92.768,65.24 L43.566,65.24 C29.234,65.01 17.652,53.317 17.652,38.934 C17.652,25.126 28.315,13.805 41.85,12.718 C46.094,5.239 54.089,0.396 62.98,0.396 C71.786,0.396 79.694,5.122 83.971,12.487 C89.875,13.175 95.178,16.329 98.561,21.085 L98.561,21.085 L98.561,21.085 Z"></path>
    <path d="M129.874,54.608 C129.842,56.588 129.612,58.218 129.1,59.537 C128.612,60.852 127.981,61.915 127.174,62.686 C126.405,63.491 125.54,64.094 124.651,64.493 C123.733,64.896 122.85,65.154 122.012,65.299 C120.409,65.526 119.805,65.353 118.374,65.353 L118.374,62.201 C119.204,62.201 118.487,62.201 119.317,62.001 C119.897,61.884 120.499,61.602 121.069,61.168 C121.641,60.738 122.127,60.081 122.532,59.193 C122.932,58.332 123.163,57.155 123.163,55.669 L123.163,47.102 C123.163,45.838 123.358,44.751 123.682,43.831 C124.024,42.916 124.426,42.173 124.938,41.571 C125.426,40.968 125.918,40.514 126.428,40.166 C126.918,39.822 127.315,39.564 127.661,39.423 C128.008,39.278 128.18,39.22 128.18,39.22 L128.18,39.106 C128.18,39.106 128.008,39.02 127.661,38.879 C127.315,38.734 126.918,38.48 126.428,38.105 C125.918,37.733 125.426,37.245 124.938,36.642 C124.426,36.04 124.024,35.296 123.682,34.408 C123.358,33.52 123.163,32.46 123.163,31.227 L123.163,23.405 C123.163,21.914 122.932,20.741 122.532,19.88 C122.127,18.992 121.641,18.335 121.069,17.905 C120.499,17.475 119.897,17.189 119.317,17.071 C118.459,16.872 119.233,16.899 118.374,16.899 L118.374,13.723 C118.405,13.723 118.518,13.723 118.778,13.691 C119.032,13.691 119.375,13.665 119.805,13.665 C120.409,13.665 121.155,13.723 122.012,13.836 C122.85,13.977 123.733,14.236 124.651,14.638 C125.54,15.038 126.405,15.64 127.174,16.441 C127.981,17.216 128.612,18.276 129.1,19.567 C129.612,20.885 129.842,22.517 129.874,24.461 L129.874,29.679 C129.874,30.97 130.073,32.03 130.415,32.863 C130.758,33.72 131.192,34.381 131.733,34.893 C132.252,35.382 132.768,35.754 133.286,35.98 C133.801,36.239 134.258,36.388 134.602,36.47 C135.233,36.587 135.922,36.7 135.922,37.588 L135.922,40.855 C135.922,41.739 135.233,41.856 134.602,41.997 C134.258,42.059 133.801,42.204 133.286,42.462 C132.768,42.689 132.252,43.061 131.733,43.55 C131.192,44.035 130.758,44.696 130.415,45.525 C130.073,46.354 129.874,47.387 129.874,48.651 L129.874,54.608"></path>
    <path d="M5.635,55.152 C5.635,57.131 5.894,58.762 6.381,60.081 C6.871,61.398 7.528,62.428 8.302,63.229 C9.104,64.035 9.965,64.638 10.854,65.037 C11.773,65.439 12.636,65.698 13.494,65.815 C15.07,66.069 15.672,65.897 17.104,65.897 L17.104,62.717 C16.271,62.717 16.991,62.717 16.189,62.545 C15.587,62.428 15.016,62.142 14.437,61.716 C13.837,61.282 13.349,60.624 12.946,59.741 C12.547,58.875 12.344,57.702 12.344,56.212 L12.344,47.646 C12.344,46.385 12.147,45.267 11.799,44.379 C11.486,43.46 11.056,42.717 10.572,42.114 C10.079,41.512 9.565,41.031 9.081,40.714 C8.592,40.37 8.158,40.111 7.846,39.966 C7.5,39.822 7.329,39.764 7.298,39.764 L7.298,39.65 C7.329,39.65 7.5,39.564 7.846,39.423 C8.158,39.251 8.592,38.993 9.081,38.652 C9.565,38.277 10.079,37.788 10.572,37.189 C11.056,36.587 11.486,35.84 11.799,34.956 C12.147,34.037 12.344,32.977 12.344,31.772 L12.344,23.948 C12.344,22.462 12.547,21.285 12.946,20.393 C13.349,19.54 13.837,18.878 14.437,18.448 C15.016,18.018 15.587,17.732 16.189,17.616 C17.049,17.42 16.243,17.42 17.104,17.42 L17.104,14.267 C17.104,14.267 16.991,14.267 16.709,14.236 C16.474,14.208 16.125,14.208 15.672,14.208 C15.07,14.208 14.354,14.267 13.494,14.38 C12.636,14.521 11.773,14.779 10.854,15.182 C9.965,15.585 9.104,16.184 8.302,16.958 C7.528,17.76 6.871,18.82 6.381,20.107 C5.894,21.429 5.635,23.064 5.635,25.008 L5.635,30.222 C5.607,31.486 5.436,32.578 5.09,33.406 C4.719,34.263 4.286,34.925 3.773,35.437 C3.256,35.926 2.741,36.302 2.224,36.532 C1.681,36.786 1.25,36.931 0.905,37.013 C0.272,37.131 -0.443,37.245 -0.443,38.132 L-0.443,41.398 C-0.443,42.29 0.272,42.4 0.905,42.517 C1.25,42.603 1.681,42.748 2.224,43.006 C2.741,43.233 3.256,43.604 3.773,44.094 C4.286,44.582 4.719,45.24 5.09,46.069 C5.436,46.898 5.607,47.931 5.635,49.194 L5.635,55.152"></path>
</svg>