<?xml version="1.0" encoding="UTF-8" standalone="no"?>
<svg width="305px" height="250px" viewBox="0 0 305 250" version="1.1" xmlns="http://www.w3.org/2000/svg" xmlns:xlink="http://www.w3.org/1999/xlink">

        <path d="M-0.215,87.646 L-0.215,164.144 L305,164.144 L305,87.646 L-0.215,87.646 Z M20.083,142.673 L33.504,109.118 L49.719,109.118 L36.297,142.673 L20.083,142.673 L20.083,142.673 Z M46.363,142.673 L59.783,109.118 L75.996,109.118 L62.576,142.673 L46.363,142.673 L46.363,142.673 Z M72.641,142.673 L86.061,109.118 L102.274,109.118 L88.852,142.673 L72.641,142.673 L72.641,142.673 Z M98.919,142.673 L112.339,109.118 L128.55,109.118 L115.132,142.673 L98.919,142.673 L98.919,142.673 Z M141.408,142.673 L125.196,142.673 L138.618,109.118 L154.83,109.118 L141.408,142.673 L141.408,142.673 Z M-0.215,173.646 L-0.215,250.144 L305,250.144 L305,173.646 L-0.215,173.646 Z M20.083,228.673 L33.504,195.118 L49.719,195.118 L36.297,228.673 L20.083,228.673 L20.083,228.673 Z M46.363,228.673 L59.783,195.118 L75.996,195.118 L62.576,228.673 L46.363,228.673 L46.363,228.673 Z M72.641,228.673 L86.061,195.118 L102.274,195.118 L88.852,228.673 L72.641,228.673 L72.641,228.673 Z M98.919,228.673 L112.339,195.118 L128.55,195.118 L115.132,228.673 L98.919,228.673 L98.919,228.673 Z M141.408,228.673 L125.196,228.673 L138.618,195.118 L154.83,195.118 L141.408,228.673 L141.408,228.673 Z M-0.215,0.646 L-0.215,77.144 L305,77.144 L305,0.646 L-0.215,0.646 Z M20.083,55.673 L33.504,22.118 L49.719,22.118 L36.297,55.673 L20.083,55.673 L20.083,55.673 Z M46.363,55.673 L59.783,22.118 L75.996,22.118 L62.576,55.673 L46.363,55.673 L46.363,55.673 Z M72.641,55.673 L86.061,22.118 L102.274,22.118 L88.852,55.673 L72.641,55.673 L72.641,55.673 Z M98.919,55.673 L112.339,22.118 L128.55,22.118 L115.132,55.673 L98.919,55.673 L98.919,55.673 Z M141.408,55.673 L125.196,55.673 L138.618,22.118 L154.83,22.118 L141.408,55.673 L141.408,55.673 Z" id="server-6-icon"></path>
</svg>