<?xml version="1.0" encoding="utf-8"?>


<!-- The icon can be used freely in both personal and commercial projects with no attribution required, but always appreciated. 
You may NOT sub-license, resell, rent, redistribute or otherwise transfer the icon without express written permission from iconmonstr.com -->


<!DOCTYPE svg PUBLIC "-//W3C//DTD SVG 1.1//EN" "http://www.w3.org/Graphics/SVG/1.1/DTD/svg11.dtd">

<svg version="1.1" xmlns="http://www.w3.org/2000/svg" xmlns:xlink="http://www.w3.org/1999/xlink" x="0px" y="0px"

	 width="512px" height="512px" viewBox="0 0 512 512" enable-background="new 0 0 512 512" xml:space="preserve">

<path id="dashboard-3-icon" d="M462,275.5c0-113.771-92.229-206-206-206s-206,92.229-206,206c0,44.342,14.013,85.409,37.847,119.021

	h74.805C178.621,422.8,214.409,442.5,256,442.5s77.379-19.7,93.349-47.979h74.805C447.987,360.909,462,319.842,462,275.5z

	 M384.876,165.008l-37.816,37.816c-5.426-6.789-11.596-12.959-18.385-18.385l37.816-37.815

	C373.062,152.264,379.235,158.437,384.876,165.008z M308.824,114.12c8.212,2.688,16.273,6.035,24.012,9.969l-20.483,49.416

	c-7.607-4.21-15.666-7.553-24.017-9.96L308.824,114.12z M243,106.237c4.386-0.334,8.75-0.503,13-0.503s8.614,0.169,13,0.503v53.474

	c-4.315-0.479-8.678-0.722-13-0.722s-8.685,0.243-13,0.722V106.237z M236.612,285.464L256,194.593l19.389,90.871

	c12.352,6.835,20.718,19.993,20.718,35.11c0,22.149-17.956,40.105-40.106,40.105c-22.149,0-40.105-17.956-40.105-40.105

	C215.895,305.457,224.261,292.299,236.612,285.464z M202.533,114.336l20.684,49.339c-8.338,2.44-16.383,5.816-23.975,10.059

	l-20.683-49.335C186.272,120.439,194.32,117.061,202.533,114.336z M145.508,146.624l37.816,37.816

	c-6.789,5.425-12.959,11.595-18.385,18.384l-37.815-37.816C132.765,158.436,138.937,152.264,145.508,146.624z M94.611,222.702

	c2.688-8.215,6.033-16.277,9.965-24.015l49.42,20.476c-4.209,7.606-7.551,15.666-9.957,24.019L94.611,222.702z M367.448,241.431

	c-2.533-8.294-6.004-16.3-10.341-23.854l49.102-21.251c4.036,7.646,7.505,15.656,10.331,23.859L367.448,241.431z"/>

</svg>

