<?xml version="1.0" encoding="UTF-8" standalone="no"?>
<svg width="394px" height="308px" viewBox="0 0 394 308" version="1.1" xmlns="http://www.w3.org/2000/svg" xmlns:xlink="http://www.w3.org/1999/xlink">
        <path d="M323.106,167.217 C284.231,167.217 252.713,198.732 252.713,237.61 C252.713,276.487 284.231,308.001 323.106,308.001 C361.983,308.001 393.501,276.487 393.501,237.61 C393.501,198.731 361.983,167.217 323.106,167.217 L323.106,167.217 Z M349.249,140.703 L349.249,109.959 L0.499,109.959 L0.499,197.372 L231.169,197.372 C251.028,152.174 301.022,127.685 349.249,140.703 L349.249,140.703 Z M23.694,172.836 L39.03,134.496 L57.555,134.496 L42.219,172.836 L23.694,172.836 L23.694,172.836 Z M53.722,172.836 L69.058,134.496 L87.581,134.496 L72.245,172.836 L53.722,172.836 L53.722,172.836 Z M83.747,172.836 L99.081,134.496 L117.606,134.496 L102.27,172.836 L83.747,172.836 L83.747,172.836 Z M113.772,172.836 L129.106,134.496 L147.629,134.496 L132.297,172.836 L113.772,172.836 L113.772,172.836 Z M143.8,172.836 L159.136,134.496 L177.659,134.496 L162.321,172.836 L143.8,172.836 L143.8,172.836 Z M349.249,-0.454 L0.499,-0.454 L0.499,86.958 L349.249,86.958 L349.249,-0.454 L349.249,-0.454 Z M23.694,62.423 L39.03,24.081 L57.555,24.081 L42.219,62.423 L23.694,62.423 L23.694,62.423 Z M53.722,62.423 L69.058,24.081 L87.581,24.081 L72.245,62.423 L53.722,62.423 L53.722,62.423 Z M83.747,62.423 L99.081,24.081 L117.606,24.081 L102.27,62.423 L83.747,62.423 L83.747,62.423 Z M113.772,62.423 L129.106,24.081 L147.629,24.081 L132.297,62.423 L113.772,62.423 L113.772,62.423 Z M162.321,62.423 L143.8,62.423 L159.136,24.081 L177.659,24.081 L162.321,62.423 L162.321,62.423 Z M224.251,220.225 L0.499,220.225 L0.499,307.637 L251.284,307.637 C228.312,284.082 218.751,251.564 224.251,220.225 L224.251,220.225 Z M23.694,283.102 L39.03,244.762 L57.555,244.762 L42.219,283.102 L23.694,283.102 L23.694,283.102 Z M53.722,283.102 L69.058,244.762 L87.581,244.762 L72.245,283.102 L53.722,283.102 L53.722,283.102 Z M83.747,283.102 L99.081,244.762 L117.606,244.762 L102.27,283.102 L83.747,283.102 L83.747,283.102 Z M113.772,283.102 L129.106,244.762 L147.629,244.762 L132.297,283.102 L113.772,283.102 L113.772,283.102 Z M162.321,283.102 L143.8,283.102 L159.136,244.762 L177.659,244.762 L162.321,283.102 L162.321,283.102 Z" id="server-5-icon"></path>
        <path d="M351.936951,253.346345 C341.046815,250.82836 330.909854,248.623436 335.819233,239.345148 C350.762825,211.10329 339.780271,196 324.000126,196 C307.90897,196 297.19666,211.682998 312.181019,239.345148 C317.237601,248.680019 306.719349,250.88254 296.0633,253.346345 C285.177592,255.862852 286.014883,261.616292 286.014883,272.05529 L361.984999,272.05529 C361.984999,261.616107 362.822291,255.862852 351.936951,253.346345 L351.936951,253.346345 Z" id="user-icon"></path>
</svg>