<?xml version="1.0" encoding="UTF-8" standalone="no"?>
<svg width="651px" height="258px" viewBox="0 0 651 258" version="1.1" xmlns="http://www.w3.org/2000/svg" xmlns:xlink="http://www.w3.org/1999/xlink" xmlns:sketch="http://www.bohemiancoding.com/sketch/ns">
    <!-- Generator: Sketch 3.0.4 (8054) - http://www.bohemiancoding.com/sketch -->
    <title>Slice 2</title>
    <desc>Created with Sketch.</desc>
    <defs></defs>
    <g id="Page-1" stroke="none" stroke-width="1" fill="none" enable-background="new 0 0 512 512" fill-rule="evenodd" >
        <path d="M595.104,100.980704 C586.874,-2.6652961 450.396,-36.8172961 394.614,51.9337039 C358.432,31.4767039 312.288,55.5447039 309.397,97.8317039 C269.729,102.689704 239,136.472704 239,177.454704 C239,221.772704 274.928,257.700704 319.246,257.700704 L570.754,257.700704 C615.072,257.700704 651,221.772704 651,177.454704 C651,141.626704 627.516,111.292704 595.104,100.980704 L595.104,100.980704 Z" id="cloud-icon-3" fill="#8F8F8F" ></path>
        <path d="M477.104,100.63 C468.874,-3.016 332.396,-37.168 276.614,51.583 C240.432,31.126 194.288,55.194 191.397,97.481 C151.729,102.339 121,136.122 121,177.104 C121,221.422 156.928,257.35 201.246,257.35 L452.754,257.35 C497.072,257.35 533,221.422 533,177.104 C533,141.276 509.516,110.942 477.104,100.63 L477.104,100.63 Z" id="cloud-icon-2" fill="#CDCDCD"></path>
        <path d="M356.104,100.63 C347.874,-3.016 211.396,-37.168 155.614,51.583 C119.432,31.126 73.288,55.194 70.397,97.481 C30.729,102.339 0,136.122 0,177.104 C0,221.422 35.928,257.35 80.246,257.35 L331.754,257.35 C376.072,257.35 412,221.422 412,177.104 C412,141.276 388.516,110.942 356.104,100.63 L356.104,100.63 Z" id="cloud-icon" fill="#FFFFFF" ></path>
    </g>
</svg>