<?xml version="1.0" encoding="UTF-8" standalone="no"?>
<!--

     [2012] - [2017] Codenvy, S.A.
     All Rights Reserved.

    NOTICE:  All information contained herein is, and remains
    the property of Codenvy S.A. and its suppliers,
    if any.  The intellectual and technical concepts contained
    herein are proprietary to Codenvy S.A.
    and its suppliers and may be covered by U.S. and Foreign Patents,
    patents in process, and are protected by trade secret or copyright law.
    Dissemination of this information or reproduction of this material
    is strictly forbidden unless prior written permission is obtained
    from Codenvy S.A..

-->
<svg width="147px" height="18px" viewBox="0 0 147 18" version="1.1" xmlns="http://www.w3.org/2000/svg" xmlns:xlink="http://www.w3.org/1999/xlink">
    <g stroke="none" stroke-width="1" fill="none" fill-rule="evenodd">
        <g transform="translate(-8.000000, -7.000000)">
            <g id="review-button" transform="translate(8.000000, 7.000000)">
                <g id="codenvy-review">
                    <rect fill="#1D2E55" x="0" y="0" width="117" height="18" rx="4"></rect>
                    <rect fill="#3E5FA8" x="30" y="0" width="117" height="18" rx="4"></rect>
                    <path d="M30,0 L34,0 L34,18 L30,18 L30,0 Z" fill="#3E5FA8"></path>
                    <path d="M39.1285,9.711 L39.1285,13 L38.067,13 L38.067,5.1185 L40.2945,5.1185 C40.7931692,5.1185 41.2239982,5.16891616 41.587,5.26975 C41.9500018,5.37058384 42.2497488,5.51633238 42.48625,5.707 C42.7227512,5.89766762 42.8978328,6.12774865 43.0115,6.39725 C43.1251672,6.66675135 43.182,6.96833166 43.182,7.302 C43.182,7.58066806 43.1380004,7.84099879 43.05,8.083 C42.9619996,8.32500121 42.8345842,8.54224904 42.66775,8.73475 C42.5009158,8.92725096 42.2974179,9.09133265 42.05725,9.227 C41.8170821,9.36266734 41.5448349,9.46533298 41.2405,9.535 C41.3725007,9.61200038 41.4898328,9.7238326 41.5925,9.8705 L43.8915,13 L42.9455,13 C42.7511657,13 42.6081671,12.9248341 42.5165,12.7745 L40.4705,9.9585 C40.4081664,9.87049956 40.3403337,9.80725019 40.267,9.76875 C40.1936663,9.73024981 40.0836674,9.711 39.937,9.711 L39.1285,9.711 Z M39.1285,8.9355 L40.245,8.9355 C40.5566682,8.9355 40.8307488,8.89791704 41.06725,8.82275 C41.3037512,8.74758296 41.5017492,8.64125069 41.66125,8.50375 C41.8207508,8.36624931 41.9408329,8.20216762 42.0215,8.0115 C42.1021671,7.82083238 42.1425,7.61000115 42.1425,7.379 C42.1425,6.90966432 41.9875849,6.55583452 41.67775,6.3175 C41.3679151,6.07916547 40.9068364,5.96 40.2945,5.96 L39.1285,5.96 L39.1285,8.9355 Z M47.0925,7.3405 C47.4261683,7.3405 47.7341653,7.39641611 48.0165,7.50825 C48.2988347,7.62008389 48.5426656,7.78141561 48.748,7.99225 C48.9533344,8.20308439 49.1137494,8.46341512 49.22925,8.77325 C49.3447506,9.08308488 49.4025,9.43599802 49.4025,9.832 C49.4025,9.98600077 49.3860002,10.0886664 49.353,10.14 C49.3199998,10.1913336 49.2576671,10.217 49.166,10.217 L45.459,10.217 C45.4663334,10.5690018 45.5139996,10.8751654 45.602,11.1355 C45.6900004,11.3958346 45.8109992,11.6130825 45.965,11.78725 C46.1190008,11.9614175 46.3023323,12.0915829 46.515,12.17775 C46.7276677,12.2639171 46.9659987,12.307 47.23,12.307 C47.4756679,12.307 47.6874158,12.2785836 47.86525,12.22175 C48.0430842,12.1649164 48.196166,12.1035003 48.3245,12.0375 C48.452834,11.9714997 48.5600829,11.9100836 48.64625,11.85325 C48.7324171,11.7964164 48.8066664,11.768 48.869,11.768 C48.9496671,11.768 49.0119998,11.7991664 49.056,11.8615 L49.331,12.219 C49.2099994,12.3656674 49.0651675,12.4930828 48.8965,12.60125 C48.7278325,12.7094172 48.547251,12.798333 48.35475,12.868 C48.162249,12.937667 47.9633344,12.9899165 47.758,13.02475 C47.5526656,13.0595835 47.3491677,13.077 47.1475,13.077 C46.7624981,13.077 46.4077516,13.0119173 46.08325,12.88175 C45.7587484,12.7515827 45.4782512,12.5609179 45.24175,12.30975 C45.0052488,12.0585821 44.8210007,11.7478352 44.689,11.3775 C44.5569993,11.0071648 44.491,10.5818357 44.491,10.1015 C44.491,9.71283139 44.5505827,9.34983502 44.66975,9.0125 C44.7889173,8.67516498 44.9603322,8.38275124 45.184,8.13525 C45.4076678,7.88774876 45.6808317,7.69341737 46.0035,7.55225 C46.3261683,7.41108263 46.6891647,7.3405 47.0925,7.3405 L47.0925,7.3405 Z M47.1145,8.061 C46.6414976,8.061 46.2693347,8.19758197 45.998,8.47075 C45.7266653,8.74391803 45.5580003,9.12249758 45.492,9.6065 L48.5225,9.6065 C48.5225,9.37916553 48.4913336,9.17108428 48.429,8.98225 C48.3666664,8.79341572 48.2750006,8.63025069 48.154,8.49275 C48.0329994,8.35524931 47.8854175,8.24891704 47.71125,8.17375 C47.5370825,8.09858296 47.3381678,8.061 47.1145,8.061 L47.1145,8.061 Z M49.804,7.4285 L50.607,7.4285 C50.6840004,7.4285 50.7481664,7.44866646 50.7995,7.489 C50.8508336,7.52933353 50.8874999,7.57699972 50.9095,7.632 L52.323,11.218 C52.3743336,11.3500007 52.4146665,11.4819993 52.444,11.614 C52.4733335,11.7460007 52.5008332,11.876166 52.5265,12.0045 C52.5558335,11.876166 52.5869998,11.7460007 52.62,11.614 C52.6530002,11.4819993 52.6951664,11.3500007 52.7465,11.218 L54.1765,7.632 C54.1985001,7.57333304 54.2342498,7.52475019 54.28375,7.48625 C54.3332502,7.44774981 54.3946663,7.4285 54.468,7.4285 L55.2325,7.4285 L52.961,13 L52.0755,13 L49.804,7.4285 Z M57.229,7.4285 L57.229,13 L56.25,13 L56.25,7.4285 L57.229,7.4285 Z M57.449,5.6795 C57.449,5.77483381 57.4297502,5.86374959 57.39125,5.94625 C57.3527498,6.02875041 57.301417,6.10208301 57.23725,6.16625 C57.173083,6.23041699 57.0988338,6.28083315 57.0145,6.3175 C56.9301662,6.35416685 56.8403338,6.3725 56.745,6.3725 C56.6496662,6.3725 56.5607504,6.35416685 56.47825,6.3175 C56.3957496,6.28083315 56.322417,6.23041699 56.25825,6.16625 C56.194083,6.10208301 56.1436669,6.02875041 56.107,5.94625 C56.0703332,5.86374959 56.052,5.77483381 56.052,5.6795 C56.052,5.58416619 56.0703332,5.4934171 56.107,5.40725 C56.1436669,5.3210829 56.194083,5.24591699 56.25825,5.18175 C56.322417,5.11758301 56.3957496,5.06716685 56.47825,5.0305 C56.5607504,4.99383315 56.6496662,4.9755 56.745,4.9755 C56.8403338,4.9755 56.9301662,4.99383315 57.0145,5.0305 C57.0988338,5.06716685 57.173083,5.11758301 57.23725,5.18175 C57.301417,5.24591699 57.3527498,5.3210829 57.39125,5.40725 C57.4297502,5.4934171 57.449,5.58416619 57.449,5.6795 L57.449,5.6795 Z M61.1615,7.3405 C61.4951683,7.3405 61.8031653,7.39641611 62.0855,7.50825 C62.3678347,7.62008389 62.6116656,7.78141561 62.817,7.99225 C63.0223344,8.20308439 63.1827494,8.46341512 63.29825,8.77325 C63.4137506,9.08308488 63.4715,9.43599802 63.4715,9.832 C63.4715,9.98600077 63.4550002,10.0886664 63.422,10.14 C63.3889998,10.1913336 63.3266671,10.217 63.235,10.217 L59.528,10.217 C59.5353334,10.5690018 59.5829996,10.8751654 59.671,11.1355 C59.7590004,11.3958346 59.8799992,11.6130825 60.034,11.78725 C60.1880008,11.9614175 60.3713323,12.0915829 60.584,12.17775 C60.7966677,12.2639171 61.0349987,12.307 61.299,12.307 C61.5446679,12.307 61.7564158,12.2785836 61.93425,12.22175 C62.1120842,12.1649164 62.265166,12.1035003 62.3935,12.0375 C62.521834,11.9714997 62.6290829,11.9100836 62.71525,11.85325 C62.8014171,11.7964164 62.8756664,11.768 62.938,11.768 C63.0186671,11.768 63.0809998,11.7991664 63.125,11.8615 L63.4,12.219 C63.2789994,12.3656674 63.1341675,12.4930828 62.9655,12.60125 C62.7968325,12.7094172 62.616251,12.798333 62.42375,12.868 C62.231249,12.937667 62.0323344,12.9899165 61.827,13.02475 C61.6216656,13.0595835 61.4181677,13.077 61.2165,13.077 C60.8314981,13.077 60.4767516,13.0119173 60.15225,12.88175 C59.8277484,12.7515827 59.5472512,12.5609179 59.31075,12.30975 C59.0742488,12.0585821 58.8900007,11.7478352 58.758,11.3775 C58.6259993,11.0071648 58.56,10.5818357 58.56,10.1015 C58.56,9.71283139 58.6195827,9.34983502 58.73875,9.0125 C58.8579173,8.67516498 59.0293322,8.38275124 59.253,8.13525 C59.4766678,7.88774876 59.7498317,7.69341737 60.0725,7.55225 C60.3951683,7.41108263 60.7581647,7.3405 61.1615,7.3405 L61.1615,7.3405 Z M61.1835,8.061 C60.7104976,8.061 60.3383347,8.19758197 60.067,8.47075 C59.7956653,8.74391803 59.6270003,9.12249758 59.561,9.6065 L62.5915,9.6065 C62.5915,9.37916553 62.5603336,9.17108428 62.498,8.98225 C62.4356664,8.79341572 62.3440006,8.63025069 62.223,8.49275 C62.1019994,8.35524931 61.9544175,8.24891704 61.78025,8.17375 C61.6060825,8.09858296 61.4071678,8.061 61.1835,8.061 L61.1835,8.061 Z M63.994,7.4285 L64.764,7.4285 C64.8446671,7.4285 64.9106664,7.44866646 64.962,7.489 C65.0133336,7.52933353 65.0481666,7.57699972 65.0665,7.632 L66.1335,11.218 C66.1628335,11.3500007 66.1903332,11.4774161 66.216,11.60025 C66.2416668,11.7230839 66.2636666,11.8468327 66.282,11.9715 C66.3113335,11.8468327 66.3443332,11.7230839 66.381,11.60025 C66.4176668,11.4774161 66.4561665,11.3500007 66.4965,11.218 L67.6735,7.61 C67.6918334,7.55499973 67.7239164,7.50916685 67.76975,7.4725 C67.8155836,7.43583315 67.873333,7.4175 67.943,7.4175 L68.3665,7.4175 C68.4398337,7.4175 68.5003331,7.43583315 68.548,7.4725 C68.5956669,7.50916685 68.6286666,7.55499973 68.647,7.61 L69.7965,11.218 C69.8368335,11.346334 69.8725832,11.4728327 69.90375,11.5975 C69.9349168,11.7221673 69.9651665,11.8449994 69.9945,11.966 C70.0128334,11.8449994 70.0366665,11.7185007 70.066,11.5865 C70.0953335,11.4544993 70.1264998,11.3316672 70.1595,11.218 L71.2485,7.632 C71.2668334,7.57333304 71.3016664,7.52475019 71.353,7.48625 C71.4043336,7.44774981 71.464833,7.4285 71.5345,7.4285 L72.2715,7.4285 L70.4675,13 L69.692,13 C69.5966662,13 69.5306668,12.9376673 69.494,12.813 L68.262,9.0345 C68.2326665,8.95016624 68.2088334,8.8649171 68.1905,8.77875 C68.1721666,8.6925829 68.1538334,8.60733375 68.1355,8.523 C68.1171666,8.60733375 68.0988334,8.69349956 68.0805,8.7815 C68.0621666,8.86950044 68.0383335,8.95566624 68.009,9.04 L66.7605,12.813 C66.7201665,12.9376673 66.6450005,13 66.535,13 L65.798,13 L63.994,7.4285 Z M75.3515,7.3405 C75.6851683,7.3405 75.9931653,7.39641611 76.2755,7.50825 C76.5578347,7.62008389 76.8016656,7.78141561 77.007,7.99225 C77.2123344,8.20308439 77.3727494,8.46341512 77.48825,8.77325 C77.6037506,9.08308488 77.6615,9.43599802 77.6615,9.832 C77.6615,9.98600077 77.6450002,10.0886664 77.612,10.14 C77.5789998,10.1913336 77.5166671,10.217 77.425,10.217 L73.718,10.217 C73.7253334,10.5690018 73.7729996,10.8751654 73.861,11.1355 C73.9490004,11.3958346 74.0699992,11.6130825 74.224,11.78725 C74.3780008,11.9614175 74.5613323,12.0915829 74.774,12.17775 C74.9866677,12.2639171 75.2249987,12.307 75.489,12.307 C75.7346679,12.307 75.9464158,12.2785836 76.12425,12.22175 C76.3020842,12.1649164 76.455166,12.1035003 76.5835,12.0375 C76.711834,11.9714997 76.8190829,11.9100836 76.90525,11.85325 C76.9914171,11.7964164 77.0656664,11.768 77.128,11.768 C77.2086671,11.768 77.2709998,11.7991664 77.315,11.8615 L77.59,12.219 C77.4689994,12.3656674 77.3241675,12.4930828 77.1555,12.60125 C76.9868325,12.7094172 76.806251,12.798333 76.61375,12.868 C76.421249,12.937667 76.2223344,12.9899165 76.017,13.02475 C75.8116656,13.0595835 75.6081677,13.077 75.4065,13.077 C75.0214981,13.077 74.6667516,13.0119173 74.34225,12.88175 C74.0177484,12.7515827 73.7372512,12.5609179 73.50075,12.30975 C73.2642488,12.0585821 73.0800007,11.7478352 72.948,11.3775 C72.8159993,11.0071648 72.75,10.5818357 72.75,10.1015 C72.75,9.71283139 72.8095827,9.34983502 72.92875,9.0125 C73.0479173,8.67516498 73.2193322,8.38275124 73.443,8.13525 C73.6666678,7.88774876 73.9398317,7.69341737 74.2625,7.55225 C74.5851683,7.41108263 74.9481646,7.3405 75.3515,7.3405 L75.3515,7.3405 Z M75.3735,8.061 C74.9004976,8.061 74.5283347,8.19758197 74.257,8.47075 C73.9856653,8.74391803 73.8170003,9.12249758 73.751,9.6065 L76.7815,9.6065 C76.7815,9.37916553 76.7503336,9.17108428 76.688,8.98225 C76.6256664,8.79341572 76.5340006,8.63025069 76.413,8.49275 C76.2919994,8.35524931 76.1444175,8.24891704 75.97025,8.17375 C75.7960825,8.09858296 75.5971678,8.061 75.3735,8.061 L75.3735,8.061 Z M78.91,13 L78.91,7.4285 L79.471,7.4285 C79.5773339,7.4285 79.6506665,7.44866646 79.691,7.489 C79.7313335,7.52933353 79.7588333,7.5989995 79.7735,7.698 L79.8395,8.567 C80.0301676,8.17833139 80.2657486,7.87491776 80.54625,7.65675 C80.8267514,7.43858224 81.1558314,7.3295 81.5335,7.3295 C81.6875008,7.3295 81.8268327,7.34691649 81.9515,7.38175 C82.0761673,7.41658351 82.1916661,7.46516635 82.298,7.5275 L82.1715,8.259 C82.1458332,8.35066712 82.0890004,8.3965 82.001,8.3965 C81.9496664,8.3965 81.8708339,8.37908351 81.7645,8.34425 C81.6581661,8.30941649 81.5096676,8.292 81.319,8.292 C80.9779983,8.292 80.6929178,8.39099901 80.46375,8.589 C80.2345822,8.78700099 80.0430008,9.07483144 79.889,9.4525 L79.889,13 L78.91,13 Z M84.74,5.1185 L85.6255,5.1185 C85.7208338,5.1185 85.7996664,5.14233309 85.862,5.19 C85.9243336,5.2376669 85.9664999,5.2981663 85.9885,5.3715 L87.6165,10.8495 C87.6458335,10.9485005 87.6724165,11.0548328 87.69625,11.1685 C87.7200835,11.2821672 87.7429999,11.4013327 87.765,11.526 C87.7906668,11.4013327 87.8163332,11.2812506 87.842,11.16575 C87.8676668,11.0502494 87.8969998,10.9448338 87.93,10.8495 L89.7835,5.3715 C89.8055001,5.30916635 89.848583,5.25141693 89.91275,5.19825 C89.976917,5.14508307 90.0548329,5.1185 90.1465,5.1185 L90.4545,5.1185 C90.5498338,5.1185 90.6277497,5.14233309 90.68825,5.19 C90.7487503,5.2376669 90.7918332,5.2981663 90.8175,5.3715 L92.66,10.8495 C92.7260003,11.0401676 92.7846664,11.2583321 92.836,11.504 C92.8580001,11.3829994 92.8781666,11.2675005 92.8965,11.1575 C92.9148334,11.0474994 92.9386665,10.9448338 92.968,10.8495 L94.6015,5.3715 C94.6198334,5.30549967 94.661083,5.24683359 94.72525,5.1955 C94.789417,5.14416641 94.8673329,5.1185 94.959,5.1185 L95.7895,5.1185 L93.331,13 L92.374,13 L90.3775,6.9885 C90.3371665,6.87483276 90.3005002,6.74283408 90.2675,6.5925 C90.2491666,6.6658337 90.2317501,6.73641633 90.21525,6.80425 C90.1987499,6.87208367 90.1813334,6.93349972 90.163,6.9885 L88.1555,13 L87.1985,13 L84.74,5.1185 Z M98.754,7.3405 C99.161002,7.3405 99.5285817,7.40833265 99.85675,7.544 C100.184918,7.67966734 100.463582,7.87216542 100.69275,8.1215 C100.921918,8.37083458 101.097916,8.6724149 101.22075,9.02625 C101.343584,9.3800851 101.405,9.77516448 101.405,10.2115 C101.405,10.6515022 101.343584,11.0474982 101.22075,11.3995 C101.097916,11.7515018 100.921918,12.0521654 100.69275,12.3015 C100.463582,12.5508346 100.184918,12.742416 99.85675,12.87625 C99.5285817,13.010084 99.161002,13.077 98.754,13.077 C98.346998,13.077 97.9794183,13.010084 97.65125,12.87625 C97.3230817,12.742416 97.0435012,12.5508346 96.8125,12.3015 C96.5814988,12.0521654 96.4036673,11.7515018 96.279,11.3995 C96.1543327,11.0474982 96.092,10.6515022 96.092,10.2115 C96.092,9.77516448 96.1543327,9.3800851 96.279,9.02625 C96.4036673,8.6724149 96.5814988,8.37083458 96.8125,8.1215 C97.0435012,7.87216542 97.3230817,7.67966734 97.65125,7.544 C97.9794183,7.40833265 98.346998,7.3405 98.754,7.3405 L98.754,7.3405 Z M98.754,12.3125 C99.3040027,12.3125 99.7146653,12.1282518 99.986,11.75975 C100.257335,11.3912482 100.393,10.8770033 100.393,10.217 C100.393,9.55333001 100.257335,9.03633518 99.986,8.666 C99.7146653,8.29566481 99.3040027,8.1105 98.754,8.1105 C98.4753319,8.1105 98.2333344,8.15816619 98.028,8.2535 C97.8226656,8.34883381 97.6512507,8.48633243 97.51375,8.666 C97.3762493,8.84566756 97.2735837,9.06658202 97.20575,9.32875 C97.1379163,9.59091798 97.104,9.88699835 97.104,10.217 C97.104,10.5470016 97.1379163,10.8421654 97.20575,11.1025 C97.2735837,11.3628346 97.3762493,11.5819158 97.51375,11.75975 C97.6512507,11.9375842 97.8226656,12.0741662 98.028,12.1695 C98.2333344,12.2648338 98.4753319,12.3125 98.754,12.3125 L98.754,12.3125 Z M102.615,13 L102.615,7.4285 L103.176,7.4285 C103.282334,7.4285 103.355666,7.44866646 103.396,7.489 C103.436334,7.52933353 103.463833,7.5989995 103.4785,7.698 L103.5445,8.567 C103.735168,8.17833139 103.970749,7.87491776 104.25125,7.65675 C104.531751,7.43858224 104.860831,7.3295 105.2385,7.3295 C105.392501,7.3295 105.531833,7.34691649 105.6565,7.38175 C105.781167,7.41658351 105.896666,7.46516635 106.003,7.5275 L105.8765,8.259 C105.850833,8.35066712 105.794,8.3965 105.706,8.3965 C105.654666,8.3965 105.575834,8.37908351 105.4695,8.34425 C105.363166,8.30941649 105.214668,8.292 105.024,8.292 C104.682998,8.292 104.397918,8.39099901 104.16875,8.589 C103.939582,8.78700099 103.748001,9.07483144 103.594,9.4525 L103.594,13 L102.615,13 Z M108.0655,4.8985 L108.0655,9.667 L108.3185,9.667 C108.391834,9.667 108.452333,9.65691677 108.5,9.63675 C108.547667,9.61658323 108.600833,9.57533364 108.6595,9.513 L110.4195,7.6265 C110.4745,7.56783304 110.5295,7.52016685 110.5845,7.4835 C110.6395,7.44683315 110.712833,7.4285 110.8045,7.4285 L111.6955,7.4285 L109.644,9.612 C109.592666,9.67433364 109.54225,9.72933309 109.49275,9.777 C109.44325,9.8246669 109.387334,9.86683315 109.325,9.9035 C109.391,9.94750022 109.450583,9.99791638 109.50375,10.05475 C109.556917,10.1115836 109.607333,10.1766663 109.655,10.25 L111.833,13 L110.953,13 C110.872333,13 110.803584,12.9844168 110.74675,12.95325 C110.689916,12.9220832 110.635834,12.8735003 110.5845,12.8075 L108.753,10.525 C108.698,10.4479996 108.643,10.3975835 108.588,10.37375 C108.533,10.3499165 108.450501,10.338 108.3405,10.338 L108.0655,10.338 L108.0655,13 L107.081,13 L107.081,4.8985 L108.0655,4.8985 Z M116.002,8.347 C115.958,8.42766707 115.890167,8.468 115.7985,8.468 C115.7435,8.468 115.681167,8.44783353 115.6115,8.4075 C115.541833,8.36716646 115.456584,8.32225025 115.35575,8.27275 C115.254916,8.22324975 115.134834,8.17741688 114.9955,8.13525 C114.856166,8.09308312 114.691168,8.072 114.5005,8.072 C114.335499,8.072 114.187001,8.09308312 114.055,8.13525 C113.922999,8.17741688 113.81025,8.2351663 113.71675,8.3085 C113.62325,8.3818337 113.55175,8.46708285 113.50225,8.56425 C113.45275,8.66141715 113.428,8.76683276 113.428,8.8805 C113.428,9.02350071 113.46925,9.14266619 113.55175,9.238 C113.63425,9.33333381 113.743333,9.41583298 113.879,9.4855 C114.014667,9.55516701 114.168666,9.61658307 114.341,9.66975 C114.513334,9.72291693 114.690249,9.7797497 114.87175,9.84025 C115.053251,9.9007503 115.230166,9.9676663 115.4025,10.041 C115.574834,10.1143337 115.728833,10.2059994 115.8645,10.316 C116.000167,10.4260005 116.10925,10.5607492 116.19175,10.72025 C116.27425,10.8797508 116.3155,11.0713322 116.3155,11.295 C116.3155,11.5516679 116.269667,11.7890822 116.178,12.00725 C116.086333,12.2254178 115.950668,12.4142492 115.771,12.57375 C115.591332,12.7332508 115.371335,12.8588329 115.111,12.9505 C114.850665,13.0421671 114.550002,13.088 114.209,13.088 C113.820331,13.088 113.468335,13.0247506 113.153,12.89825 C112.837665,12.7717494 112.570001,12.609501 112.35,12.4115 L112.581,12.0375 C112.610333,11.9898331 112.645166,11.9531668 112.6855,11.9275 C112.725834,11.9018332 112.779,11.889 112.845,11.889 C112.911,11.889 112.980666,11.9146664 113.054,11.966 C113.127334,12.0173336 113.216249,12.0741664 113.32075,12.1365 C113.425251,12.1988336 113.551749,12.2556664 113.70025,12.307 C113.848751,12.3583336 114.034832,12.384 114.2585,12.384 C114.449168,12.384 114.615999,12.3592502 114.759,12.30975 C114.902001,12.2602498 115.021166,12.1933338 115.1165,12.109 C115.211834,12.0246662 115.282416,11.9275005 115.32825,11.8175 C115.374084,11.7074994 115.397,11.5901673 115.397,11.4655 C115.397,11.3114992 115.35575,11.1840838 115.27325,11.08325 C115.19075,10.9824162 115.081667,10.8962504 114.946,10.82475 C114.810333,10.7532496 114.655418,10.6909169 114.48125,10.63775 C114.307082,10.5845831 114.129251,10.528667 113.94775,10.47 C113.766249,10.411333 113.588418,10.344417 113.41425,10.26925 C113.240082,10.194083 113.085167,10.0996672 112.9495,9.986 C112.813833,9.87233276 112.70475,9.73208417 112.62225,9.56525 C112.53975,9.39841583 112.4985,9.19583452 112.4985,8.9575 C112.4985,8.74483227 112.5425,8.54041765 112.6305,8.34425 C112.7185,8.14808235 112.846832,7.97575074 113.0155,7.82725 C113.184168,7.67874926 113.391332,7.56050044 113.637,7.4725 C113.882668,7.38449956 114.163165,7.3405 114.4785,7.3405 C114.845168,7.3405 115.174249,7.39824942 115.46575,7.51375 C115.757251,7.62925058 116.009332,7.78783232 116.222,7.9895 L116.002,8.347 Z M117.586,14.8865 L117.586,7.4285 L118.169,7.4285 C118.308334,7.4285 118.396333,7.49633265 118.433,7.632 L118.5155,8.292 C118.753835,8.00233188 119.026082,7.76950088 119.33225,7.5935 C119.638418,7.41749912 119.991331,7.3295 120.391,7.3295 C120.710002,7.3295 120.999665,7.39091605 121.26,7.51375 C121.520335,7.63658395 121.742166,7.81808213 121.9255,8.05825 C122.108834,8.29841787 122.25,8.59633155 122.349,8.952 C122.448,9.30766844 122.4975,9.71649769 122.4975,10.1785 C122.4975,10.5891687 122.442501,10.9714149 122.3325,11.32525 C122.222499,11.6790851 122.064834,11.9852487 121.8595,12.24375 C121.654166,12.5022513 121.402085,12.7057493 121.10325,12.85425 C120.804415,13.0027507 120.468002,13.077 120.094,13.077 C119.749332,13.077 119.455085,13.0201672 119.21125,12.9065 C118.967415,12.7928328 118.752001,12.631501 118.565,12.4225 L118.565,14.8865 L117.586,14.8865 Z M120.0665,8.1215 C119.747498,8.1215 119.467918,8.1948326 119.22775,8.3415 C118.987582,8.4881674 118.766668,8.69533199 118.565,8.963 L118.565,11.658 C118.744668,11.9000012 118.941749,12.0704995 119.15625,12.1695 C119.370751,12.2685005 119.609999,12.318 119.874,12.318 C120.391003,12.318 120.788832,12.1328352 121.0675,11.7625 C121.346168,11.3921648 121.4855,10.8641701 121.4855,10.1785 C121.4855,9.81549818 121.453417,9.50383463 121.38925,9.2435 C121.325083,8.98316536 121.232501,8.76958417 121.1115,8.60275 C120.990499,8.43591583 120.842001,8.31400038 120.666,8.237 C120.489999,8.15999961 120.290168,8.1215 120.0665,8.1215 L120.0665,8.1215 Z M127.75,13 L127.3155,13 C127.220166,13 127.143167,12.9853335 127.0845,12.956 C127.025833,12.9266665 126.987333,12.8643338 126.969,12.769 L126.859,12.252 C126.712333,12.3840007 126.569334,12.5022495 126.43,12.60675 C126.290666,12.7112505 126.144001,12.7992496 125.99,12.87075 C125.835999,12.9422504 125.671918,12.9963331 125.49775,13.033 C125.323582,13.0696668 125.130168,13.088 124.9175,13.088 C124.701166,13.088 124.498584,13.0577503 124.30975,12.99725 C124.120916,12.9367497 123.956834,12.8460006 123.8175,12.725 C123.678166,12.6039994 123.56725,12.4509176 123.48475,12.26575 C123.40225,12.0805824 123.361,11.8615013 123.361,11.6085 C123.361,11.3884989 123.421499,11.176751 123.5425,10.97325 C123.663501,10.769749 123.858749,10.5891675 124.12825,10.4315 C124.397751,10.2738325 124.750664,10.1445838 125.187,10.04375 C125.623336,9.94291616 126.15683,9.88516674 126.7875,9.8705 L126.7875,9.436 C126.7875,9.00333117 126.694918,8.67608444 126.50975,8.45425 C126.324582,8.23241556 126.050502,8.1215 125.6875,8.1215 C125.449165,8.1215 125.248417,8.1517497 125.08525,8.21225 C124.922083,8.2727503 124.780917,8.34058296 124.66175,8.41575 C124.542583,8.49091704 124.439917,8.5587497 124.35375,8.61925 C124.267583,8.6797503 124.182334,8.71 124.098,8.71 C124.032,8.71 123.97425,8.69258351 123.92475,8.65775 C123.87525,8.62291649 123.835833,8.57983359 123.8065,8.5285 L123.6305,8.215 C123.938502,7.91799851 124.270332,7.6961674 124.626,7.5495 C124.981668,7.4028326 125.375831,7.3295 125.8085,7.3295 C126.120168,7.3295 126.396999,7.38083282 126.639,7.4835 C126.881001,7.58616718 127.084499,7.72916575 127.2495,7.9125 C127.414501,8.09583425 127.539166,8.31766536 127.6235,8.578 C127.707834,8.83833463 127.75,9.12433177 127.75,9.436 L127.75,13 Z M125.209,12.4005 C125.381334,12.4005 125.538999,12.3830835 125.682,12.34825 C125.825001,12.3134165 125.959749,12.263917 126.08625,12.19975 C126.212751,12.135583 126.333749,12.0576671 126.44925,11.966 C126.564751,11.8743329 126.677499,11.7698339 126.7875,11.6525 L126.7875,10.492 C126.336498,10.5066667 125.953335,10.5424164 125.638,10.59925 C125.322665,10.6560836 125.066001,10.7303329 124.868,10.822 C124.669999,10.9136671 124.526084,11.0218327 124.43625,11.1465 C124.346416,11.2711673 124.3015,11.4104992 124.3015,11.5645 C124.3015,11.7111674 124.325333,11.8376661 124.373,11.944 C124.420667,12.0503339 124.484833,12.1374163 124.5655,12.20525 C124.646167,12.2730837 124.741499,12.3225832 124.8515,12.35375 C124.961501,12.3849168 125.080666,12.4005 125.209,12.4005 L125.209,12.4005 Z M133.0355,8.4185 C133.006167,8.45883353 132.976833,8.48999989 132.9475,8.512 C132.918167,8.53400011 132.876,8.545 132.821,8.545 C132.766,8.545 132.706417,8.52208356 132.64225,8.47625 C132.578083,8.43041644 132.4965,8.38000027 132.3975,8.325 C132.2985,8.26999972 132.178417,8.21958356 132.03725,8.17375 C131.896083,8.12791644 131.722834,8.105 131.5175,8.105 C131.246165,8.105 131.006001,8.15358285 130.797,8.25075 C130.587999,8.34791715 130.412917,8.48816575 130.27175,8.6715 C130.130583,8.85483425 130.02425,9.07666536 129.95275,9.337 C129.88125,9.59733463 129.8455,9.88883172 129.8455,10.2115 C129.8455,10.548835 129.884,10.848582 129.961,11.11075 C130.038,11.372918 130.146166,11.5929158 130.2855,11.77075 C130.424834,11.9485842 130.594416,12.0842495 130.79425,12.17775 C130.994084,12.2712505 131.218665,12.318 131.468,12.318 C131.706335,12.318 131.902499,12.2895836 132.0565,12.23275 C132.210501,12.1759164 132.338833,12.112667 132.4415,12.043 C132.544167,11.973333 132.6285,11.9100836 132.6945,11.85325 C132.7605,11.7964164 132.8265,11.768 132.8925,11.768 C132.976834,11.768 133.039166,11.7991664 133.0795,11.8615 L133.3545,12.219 C133.112499,12.5160015 132.810002,12.7332493 132.447,12.87075 C132.083998,13.0082507 131.700835,13.077 131.2975,13.077 C130.949165,13.077 130.625585,13.012834 130.32675,12.8845 C130.027915,12.756166 129.768501,12.5700846 129.5485,12.32625 C129.328499,12.0824154 129.155251,11.7826684 129.02875,11.427 C128.902249,11.0713316 128.839,10.6661689 128.839,10.2115 C128.839,9.79716459 128.896749,9.41400176 129.01225,9.062 C129.127751,8.70999824 129.296416,8.40658461 129.51825,8.15175 C129.740084,7.89691539 130.014165,7.69800071 130.3405,7.555 C130.666835,7.41199928 131.040831,7.3405 131.4625,7.3405 C131.851169,7.3405 132.195832,7.40374937 132.4965,7.53025 C132.797168,7.65675063 133.062999,7.83549884 133.294,8.0665 L133.0355,8.4185 Z M136.5775,7.3405 C136.911168,7.3405 137.219165,7.39641611 137.5015,7.50825 C137.783835,7.62008389 138.027666,7.78141561 138.233,7.99225 C138.438334,8.20308439 138.598749,8.46341512 138.71425,8.77325 C138.829751,9.08308488 138.8875,9.43599802 138.8875,9.832 C138.8875,9.98600077 138.871,10.0886664 138.838,10.14 C138.805,10.1913336 138.742667,10.217 138.651,10.217 L134.944,10.217 C134.951333,10.5690018 134.999,10.8751654 135.087,11.1355 C135.175,11.3958346 135.295999,11.6130825 135.45,11.78725 C135.604001,11.9614175 135.787332,12.0915829 136,12.17775 C136.212668,12.2639171 136.450999,12.307 136.715,12.307 C136.960668,12.307 137.172416,12.2785836 137.35025,12.22175 C137.528084,12.1649164 137.681166,12.1035003 137.8095,12.0375 C137.937834,11.9714997 138.045083,11.9100836 138.13125,11.85325 C138.217417,11.7964164 138.291666,11.768 138.354,11.768 C138.434667,11.768 138.497,11.7991664 138.541,11.8615 L138.816,12.219 C138.694999,12.3656674 138.550168,12.4930828 138.3815,12.60125 C138.212832,12.7094172 138.032251,12.798333 137.83975,12.868 C137.647249,12.937667 137.448334,12.9899165 137.243,13.02475 C137.037666,13.0595835 136.834168,13.077 136.6325,13.077 C136.247498,13.077 135.892752,13.0119173 135.56825,12.88175 C135.243748,12.7515827 134.963251,12.5609179 134.72675,12.30975 C134.490249,12.0585821 134.306001,11.7478352 134.174,11.3775 C134.041999,11.0071648 133.976,10.5818357 133.976,10.1015 C133.976,9.71283139 134.035583,9.34983502 134.15475,9.0125 C134.273917,8.67516498 134.445332,8.38275124 134.669,8.13525 C134.892668,7.88774876 135.165832,7.69341737 135.4885,7.55225 C135.811168,7.41108263 136.174165,7.3405 136.5775,7.3405 L136.5775,7.3405 Z M136.5995,8.061 C136.126498,8.061 135.754335,8.19758197 135.483,8.47075 C135.211665,8.74391803 135.043,9.12249758 134.977,9.6065 L138.0075,9.6065 C138.0075,9.37916553 137.976334,9.17108428 137.914,8.98225 C137.851666,8.79341572 137.760001,8.63025069 137.639,8.49275 C137.517999,8.35524931 137.370418,8.24891704 137.19625,8.17375 C137.022082,8.09858296 136.823168,8.061 136.5995,8.061 L136.5995,8.061 Z" id="Reviewer-Workspace" fill="#FFFFFF"></path>
                </g>
                <g id="codenvy-logo" transform="translate(2.000000, 3.000000)" fill="#FFFFFF">
                    <path d="M1.19197671,3.89346826 C1.19197671,5.35898721 0,5.45944291 0,5.45944291 L0,6.69508843 C0,6.69508843 1.19197671,6.79574667 1.19197671,8.29002511 L1.19197671,9.49670863 C1.19197671,11.7668858 2.7905697,11.9967592 3.46365108,11.9967592 C3.66013945,11.9967592 3.78625572,11.9823795 3.78625572,11.9823795 L3.78625572,10.9190883 L3.58996503,10.9190883 C3.23929062,10.9190883 2.38395343,10.7898731 2.38395343,9.41063267 L2.38395343,7.93073398 C2.38395343,6.50835426 1.24811625,6.10612643 1.24811625,6.10612643 L1.24811625,6.07736694 C1.24811625,6.07736694 2.38395343,5.73245556 2.38395343,4.25255685 L2.38395343,2.60030374 C2.38395343,1.22106326 3.23929062,1.09184807 3.58996503,1.09184807 L3.78625572,1.09184807 L3.78625572,0.028556962 C3.78625572,0.028556962 3.66013945,0 3.46365108,0 C2.7905697,0 1.19197671,0.22967088 1.19197671,2.51422778 L1.19197671,3.89346826 L1.19197671,3.89346826 Z" transform="translate(1.893128, 5.998380) scale(1, -1) translate(-1.893128, -5.998380) "></path>
                    <path d="M21.8416395,1.09184807 C22.1921163,1.09184807 23.0476511,1.22106326 23.0476511,2.60050627 L23.0476511,4.25275939 C23.0476511,5.73265808 24.1834883,6.07736693 24.1834883,6.07736693 L24.1834883,6.10612642 C24.1834883,6.10612642 23.0476511,6.50835427 23.0476511,7.93073397 L23.0476511,9.41063268 C23.0476511,10.7898731 22.1921163,10.9192909 21.8416395,10.9192909 L21.6453488,10.9192909 L21.6453488,11.9823794 C21.6453488,11.9823794 21.7714651,11.9967592 21.9677558,11.9967592 C22.6408372,11.9967592 24.2394302,11.7668858 24.2394302,9.49691116 L24.2394302,8.29002511 C24.2394302,6.79574666 25.4316046,6.69529097 25.4316046,6.69529097 L25.4316046,5.45964543 C25.4316046,5.45964543 24.2394302,5.35898721 24.2394302,3.89346825 L24.2394302,2.51422779 C24.2394302,0.229873413 22.6408372,8.8817842e-16 21.9677558,8.8817842e-16 C21.7714651,8.8817842e-16 21.6453488,0.0287594932 21.6453488,0.0287594932 L21.6453488,1.09184807 L21.8416395,1.09184807 L21.8416395,1.09184807 Z" transform="translate(23.538477, 5.998380) scale(1, -1) translate(-23.538477, -5.998380) "></path>
                    <path d="M9.59748828,7.64344289 C8.30311623,7.64344289 7.2503023,6.56455684 7.2503023,5.23858219 C7.2503023,3.912405 8.30311623,2.83351896 9.59748828,2.83351896 L16.3105114,2.83351896 C17.36293,2.83351896 18.2192555,3.71088602 18.2192555,4.789367 C18.2192555,5.80384799 17.4465462,6.65994924 16.4603486,6.73812645 L16.1527672,6.76263279 L15.9983835,7.03625303 C15.6680695,7.62136694 15.0786044,7.98673401 14.4215347,8.01306314 L14.0459533,8.02825301 L13.902837,8.3841011 C13.6067207,9.11989855 12.9138719,9.59524031 12.1376045,9.59524031 C11.2524185,9.59524031 10.4897906,8.98035424 10.2824301,8.09994921 L10.1699534,7.62197454 L9.69039527,7.64080998 C9.65955806,7.64202517 9.62872085,7.64344289 9.59748828,7.64344289 M16.3105114,1.63291139 L9.59748828,1.63291139 C7.65711624,1.63291139 6.07848837,3.2505316 6.07848837,5.23858219 C6.07848837,7.11827835 7.48968601,8.66663273 9.28358131,8.82987324 C9.74831386,10.0073922 10.864779,10.7958479 12.1376045,10.7958479 C13.2683021,10.7958479 14.2890928,10.1712403 14.8285463,9.17660741 C15.6437556,9.04556943 16.36843,8.58744286 16.8497672,7.89640491 C17.5060462,7.77772137 18.1071741,7.4437467 18.5667671,6.93762011 C19.0983136,6.35230368 19.3910694,5.58936699 19.3910694,4.789367 C19.3910694,3.04881009 18.0091276,1.63291139 16.3105114,1.63291139" transform="translate(12.734779, 6.214380) scale(1, -1) translate(-12.734779, -6.214380) "></path>
                </g>
            </g>
        </g>
    </g>
</svg>
