<?xml version="1.0" encoding="UTF-8" standalone="no"?>
<!--

     [2012] - [2017] Codenvy, S.A.
     All Rights Reserved.

    NOTICE:  All information contained herein is, and remains
    the property of Codenvy S.A. and its suppliers,
    if any.  The intellectual and technical concepts contained
    herein are proprietary to Codenvy S.A.
    and its suppliers and may be covered by U.S. and Foreign Patents,
    patents in process, and are protected by trade secret or copyright law.
    Dissemination of this information or reproduction of this material
    is strictly forbidden unless prior written permission is obtained
    from Codenvy S.A..

-->
<svg width="147px" height="20px" viewBox="0 0 147 20" version="1.1" xmlns="http://www.w3.org/2000/svg" xmlns:xlink="http://www.w3.org/1999/xlink">
    <g stroke="none" stroke-width="1" fill="none" fill-rule="evenodd">
        <g transform="translate(-8.000000, -7.000000)">
            <g id="contribute-button" transform="translate(8.000000, 7.000000)">
                <g id="codenvy-contribute">
                    <rect fill="#1D2E55" x="0" y="0" width="117" height="20" rx="4"></rect>
                    <rect fill="#3E5FA8" x="30" y="0" width="117" height="20" rx="4"></rect>
                    <path d="M30,0 L34,0 L34,20 L30,20 L30,0 Z" fill="#3E5FA8"></path>
                    <path transform="translate(0.000000, 1.000000)"  d="M41.788,9.062 C41.788,9.65233628 41.6945009,10.1894976 41.5075,10.6735 C41.3204991,11.1575024 41.0565017,11.5718316 40.7155,11.9165 C40.3744983,12.2611684 39.9656691,12.5279157 39.489,12.71675 C39.0123309,12.9055843 38.4843362,13 37.905,13 L34.957,13 L34.957,5.1185 L37.905,5.1185 C38.4843362,5.1185 39.0123309,5.21291572 39.489,5.40175 C39.9656691,5.59058428 40.3744983,5.85824827 40.7155,6.20475 C41.0565017,6.55125173 41.3204991,6.96649758 41.5075,7.4505 C41.6945009,7.93450242 41.788,8.47166371 41.788,9.062 L41.788,9.062 Z M40.6935,9.062 C40.6935,8.57799758 40.6275007,8.14533524 40.4955,7.764 C40.3634993,7.38266476 40.1765012,7.06000132 39.9345,6.796 C39.6924988,6.53199868 39.3991684,6.33033403 39.0545,6.191 C38.7098316,6.05166597 38.3266688,5.982 37.905,5.982 L36.0295,5.982 L36.0295,12.1365 L37.905,12.1365 C38.3266688,12.1365 38.7098316,12.066834 39.0545,11.9275 C39.3991684,11.788166 39.6924988,11.587418 39.9345,11.32525 C40.1765012,11.063082 40.3634993,10.7413352 40.4955,10.36 C40.6275007,9.97866476 40.6935,9.54600242 40.6935,9.062 L40.6935,9.062 Z M45.2915,7.3405 C45.6251683,7.3405 45.9331653,7.39641611 46.2155,7.50825 C46.4978347,7.62008389 46.7416656,7.78141561 46.947,7.99225 C47.1523344,8.20308439 47.3127494,8.46341512 47.42825,8.77325 C47.5437506,9.08308488 47.6015,9.43599802 47.6015,9.832 C47.6015,9.98600077 47.5850002,10.0886664 47.552,10.14 C47.5189998,10.1913336 47.4566671,10.217 47.365,10.217 L43.658,10.217 C43.6653334,10.5690018 43.7129996,10.8751654 43.801,11.1355 C43.8890004,11.3958346 44.0099992,11.6130825 44.164,11.78725 C44.3180008,11.9614175 44.5013323,12.0915829 44.714,12.17775 C44.9266677,12.2639171 45.1649987,12.307 45.429,12.307 C45.6746679,12.307 45.8864158,12.2785836 46.06425,12.22175 C46.2420842,12.1649164 46.395166,12.1035003 46.5235,12.0375 C46.651834,11.9714997 46.7590829,11.9100836 46.84525,11.85325 C46.9314171,11.7964164 47.0056664,11.768 47.068,11.768 C47.1486671,11.768 47.2109998,11.7991664 47.255,11.8615 L47.53,12.219 C47.4089994,12.3656674 47.2641675,12.4930828 47.0955,12.60125 C46.9268325,12.7094172 46.746251,12.798333 46.55375,12.868 C46.361249,12.937667 46.1623344,12.9899165 45.957,13.02475 C45.7516656,13.0595835 45.5481677,13.077 45.3465,13.077 C44.9614981,13.077 44.6067516,13.0119173 44.28225,12.88175 C43.9577484,12.7515827 43.6772512,12.5609179 43.44075,12.30975 C43.2042488,12.0585821 43.0200007,11.7478352 42.888,11.3775 C42.7559993,11.0071648 42.69,10.5818357 42.69,10.1015 C42.69,9.71283139 42.7495827,9.34983502 42.86875,9.0125 C42.9879173,8.67516498 43.1593322,8.38275124 43.383,8.13525 C43.6066678,7.88774876 43.8798317,7.69341737 44.2025,7.55225 C44.5251683,7.41108263 44.8881647,7.3405 45.2915,7.3405 L45.2915,7.3405 Z M45.3135,8.061 C44.8404976,8.061 44.4683347,8.19758197 44.197,8.47075 C43.9256653,8.74391803 43.7570003,9.12249758 43.691,9.6065 L46.7215,9.6065 C46.7215,9.37916553 46.6903336,9.17108428 46.628,8.98225 C46.5656664,8.79341572 46.4740006,8.63025069 46.353,8.49275 C46.2319994,8.35524931 46.0844175,8.24891704 45.91025,8.17375 C45.7360825,8.09858296 45.5371678,8.061 45.3135,8.061 L45.3135,8.061 Z M48.003,7.4285 L48.806,7.4285 C48.8830004,7.4285 48.9471664,7.44866646 48.9985,7.489 C49.0498336,7.52933353 49.0864999,7.57699972 49.1085,7.632 L50.522,11.218 C50.5733336,11.3500007 50.6136665,11.4819993 50.643,11.614 C50.6723335,11.7460007 50.6998332,11.876166 50.7255,12.0045 C50.7548335,11.876166 50.7859998,11.7460007 50.819,11.614 C50.8520002,11.4819993 50.8941664,11.3500007 50.9455,11.218 L52.3755,7.632 C52.3975001,7.57333304 52.4332498,7.52475019 52.48275,7.48625 C52.5322502,7.44774981 52.5936663,7.4285 52.667,7.4285 L53.4315,7.4285 L51.16,13 L50.2745,13 L48.003,7.4285 Z M56.4015,7.3405 C56.7351683,7.3405 57.0431653,7.39641611 57.3255,7.50825 C57.6078347,7.62008389 57.8516656,7.78141561 58.057,7.99225 C58.2623344,8.20308439 58.4227494,8.46341512 58.53825,8.77325 C58.6537506,9.08308488 58.7115,9.43599802 58.7115,9.832 C58.7115,9.98600077 58.6950002,10.0886664 58.662,10.14 C58.6289998,10.1913336 58.5666671,10.217 58.475,10.217 L54.768,10.217 C54.7753334,10.5690018 54.8229996,10.8751654 54.911,11.1355 C54.9990004,11.3958346 55.1199992,11.6130825 55.274,11.78725 C55.4280008,11.9614175 55.6113323,12.0915829 55.824,12.17775 C56.0366677,12.2639171 56.2749987,12.307 56.539,12.307 C56.7846679,12.307 56.9964158,12.2785836 57.17425,12.22175 C57.3520842,12.1649164 57.505166,12.1035003 57.6335,12.0375 C57.761834,11.9714997 57.8690829,11.9100836 57.95525,11.85325 C58.0414171,11.7964164 58.1156664,11.768 58.178,11.768 C58.2586671,11.768 58.3209998,11.7991664 58.365,11.8615 L58.64,12.219 C58.5189994,12.3656674 58.3741675,12.4930828 58.2055,12.60125 C58.0368325,12.7094172 57.856251,12.798333 57.66375,12.868 C57.471249,12.937667 57.2723344,12.9899165 57.067,13.02475 C56.8616656,13.0595835 56.6581677,13.077 56.4565,13.077 C56.0714981,13.077 55.7167516,13.0119173 55.39225,12.88175 C55.0677484,12.7515827 54.7872512,12.5609179 54.55075,12.30975 C54.3142488,12.0585821 54.1300007,11.7478352 53.998,11.3775 C53.8659993,11.0071648 53.8,10.5818357 53.8,10.1015 C53.8,9.71283139 53.8595827,9.34983502 53.97875,9.0125 C54.0979173,8.67516498 54.2693322,8.38275124 54.493,8.13525 C54.7166678,7.88774876 54.9898317,7.69341737 55.3125,7.55225 C55.6351683,7.41108263 55.9981646,7.3405 56.4015,7.3405 L56.4015,7.3405 Z M56.4235,8.061 C55.9504976,8.061 55.5783347,8.19758197 55.307,8.47075 C55.0356653,8.74391803 54.8670003,9.12249758 54.801,9.6065 L57.8315,9.6065 C57.8315,9.37916553 57.8003336,9.17108428 57.738,8.98225 C57.6756664,8.79341572 57.5840006,8.63025069 57.463,8.49275 C57.3419994,8.35524931 57.1944175,8.24891704 57.02025,8.17375 C56.8460825,8.09858296 56.6471678,8.061 56.4235,8.061 L56.4235,8.061 Z M61.049,4.8985 L61.049,13 L60.07,13 L60.07,4.8985 L61.049,4.8985 Z M65.031,7.3405 C65.438002,7.3405 65.8055817,7.40833265 66.13375,7.544 C66.4619183,7.67966734 66.7405822,7.87216542 66.96975,8.1215 C67.1989178,8.37083458 67.3749161,8.6724149 67.49775,9.02625 C67.6205839,9.3800851 67.682,9.77516448 67.682,10.2115 C67.682,10.6515022 67.6205839,11.0474982 67.49775,11.3995 C67.3749161,11.7515018 67.1989178,12.0521654 66.96975,12.3015 C66.7405822,12.5508346 66.4619183,12.742416 66.13375,12.87625 C65.8055817,13.010084 65.438002,13.077 65.031,13.077 C64.623998,13.077 64.2564183,13.010084 63.92825,12.87625 C63.6000817,12.742416 63.3205012,12.5508346 63.0895,12.3015 C62.8584988,12.0521654 62.6806673,11.7515018 62.556,11.3995 C62.4313327,11.0474982 62.369,10.6515022 62.369,10.2115 C62.369,9.77516448 62.4313327,9.3800851 62.556,9.02625 C62.6806673,8.6724149 62.8584988,8.37083458 63.0895,8.1215 C63.3205012,7.87216542 63.6000817,7.67966734 63.92825,7.544 C64.2564183,7.40833265 64.623998,7.3405 65.031,7.3405 L65.031,7.3405 Z M65.031,12.3125 C65.5810027,12.3125 65.9916653,12.1282518 66.263,11.75975 C66.5343347,11.3912482 66.67,10.8770033 66.67,10.217 C66.67,9.55333001 66.5343347,9.03633518 66.263,8.666 C65.9916653,8.29566481 65.5810027,8.1105 65.031,8.1105 C64.7523319,8.1105 64.5103344,8.15816619 64.305,8.2535 C64.0996656,8.34883381 63.9282507,8.48633243 63.79075,8.666 C63.6532493,8.84566756 63.5505837,9.06658202 63.48275,9.32875 C63.4149163,9.59091798 63.381,9.88699835 63.381,10.217 C63.381,10.5470016 63.4149163,10.8421654 63.48275,11.1025 C63.5505837,11.3628346 63.6532493,11.5819158 63.79075,11.75975 C63.9282507,11.9375842 64.0996656,12.0741662 64.305,12.1695 C64.5103344,12.2648338 64.7523319,12.3125 65.031,12.3125 L65.031,12.3125 Z M68.892,14.8865 L68.892,7.4285 L69.475,7.4285 C69.614334,7.4285 69.7023332,7.49633265 69.739,7.632 L69.8215,8.292 C70.0598345,8.00233188 70.3320818,7.76950088 70.63825,7.5935 C70.9444182,7.41749912 71.2973313,7.3295 71.697,7.3295 C72.0160016,7.3295 72.3056654,7.39091605 72.566,7.51375 C72.8263346,7.63658395 73.0481657,7.81808213 73.2315,8.05825 C73.4148342,8.29841787 73.5559995,8.59633155 73.655,8.952 C73.7540005,9.30766844 73.8035,9.71649769 73.8035,10.1785 C73.8035,10.5891687 73.7485006,10.9714149 73.6385,11.32525 C73.5284994,11.6790851 73.3708344,11.9852487 73.1655,12.24375 C72.9601656,12.5022513 72.7080848,12.7057493 72.40925,12.85425 C72.1104152,13.0027507 71.7740019,13.077 71.4,13.077 C71.0553316,13.077 70.7610846,13.0201672 70.51725,12.9065 C70.2734154,12.7928328 70.0580009,12.631501 69.871,12.4225 L69.871,14.8865 L68.892,14.8865 Z M71.3725,8.1215 C71.0534984,8.1215 70.7739179,8.1948326 70.53375,8.3415 C70.2935821,8.4881674 70.0726677,8.69533199 69.871,8.963 L69.871,11.658 C70.0506676,11.9000012 70.2477489,12.0704995 70.46225,12.1695 C70.6767511,12.2685005 70.9159987,12.318 71.18,12.318 C71.6970026,12.318 72.0948319,12.1328352 72.3735,11.7625 C72.6521681,11.3921648 72.7915,10.8641701 72.7915,10.1785 C72.7915,9.81549818 72.759417,9.50383463 72.69525,9.2435 C72.631083,8.98316536 72.5385006,8.76958417 72.4175,8.60275 C72.2964994,8.43591583 72.1480009,8.31400038 71.972,8.237 C71.7959991,8.15999961 71.5961678,8.1215 71.3725,8.1215 L71.3725,8.1215 Z M77.1695,7.3405 C77.5031683,7.3405 77.8111653,7.39641611 78.0935,7.50825 C78.3758347,7.62008389 78.6196656,7.78141561 78.825,7.99225 C79.0303344,8.20308439 79.1907494,8.46341512 79.30625,8.77325 C79.4217506,9.08308488 79.4795,9.43599802 79.4795,9.832 C79.4795,9.98600077 79.4630002,10.0886664 79.43,10.14 C79.3969998,10.1913336 79.3346671,10.217 79.243,10.217 L75.536,10.217 C75.5433334,10.5690018 75.5909996,10.8751654 75.679,11.1355 C75.7670004,11.3958346 75.8879992,11.6130825 76.042,11.78725 C76.1960008,11.9614175 76.3793323,12.0915829 76.592,12.17775 C76.8046677,12.2639171 77.0429987,12.307 77.307,12.307 C77.5526679,12.307 77.7644158,12.2785836 77.94225,12.22175 C78.1200842,12.1649164 78.273166,12.1035003 78.4015,12.0375 C78.529834,11.9714997 78.6370829,11.9100836 78.72325,11.85325 C78.8094171,11.7964164 78.8836664,11.768 78.946,11.768 C79.0266671,11.768 79.0889998,11.7991664 79.133,11.8615 L79.408,12.219 C79.2869994,12.3656674 79.1421675,12.4930828 78.9735,12.60125 C78.8048325,12.7094172 78.624251,12.798333 78.43175,12.868 C78.239249,12.937667 78.0403344,12.9899165 77.835,13.02475 C77.6296656,13.0595835 77.4261677,13.077 77.2245,13.077 C76.8394981,13.077 76.4847516,13.0119173 76.16025,12.88175 C75.8357484,12.7515827 75.5552512,12.5609179 75.31875,12.30975 C75.0822488,12.0585821 74.8980007,11.7478352 74.766,11.3775 C74.6339993,11.0071648 74.568,10.5818357 74.568,10.1015 C74.568,9.71283139 74.6275827,9.34983502 74.74675,9.0125 C74.8659173,8.67516498 75.0373322,8.38275124 75.261,8.13525 C75.4846678,7.88774876 75.7578317,7.69341737 76.0805,7.55225 C76.4031683,7.41108263 76.7661647,7.3405 77.1695,7.3405 L77.1695,7.3405 Z M77.1915,8.061 C76.7184976,8.061 76.3463347,8.19758197 76.075,8.47075 C75.8036653,8.74391803 75.6350003,9.12249758 75.569,9.6065 L78.5995,9.6065 C78.5995,9.37916553 78.5683336,9.17108428 78.506,8.98225 C78.4436664,8.79341572 78.3520006,8.63025069 78.231,8.49275 C78.1099994,8.35524931 77.9624175,8.24891704 77.78825,8.17375 C77.6140825,8.09858296 77.4151678,8.061 77.1915,8.061 L77.1915,8.061 Z M80.728,13 L80.728,7.4285 L81.289,7.4285 C81.3953339,7.4285 81.4686665,7.44866646 81.509,7.489 C81.5493335,7.52933353 81.5768333,7.5989995 81.5915,7.698 L81.6575,8.567 C81.8481676,8.17833139 82.0837486,7.87491776 82.36425,7.65675 C82.6447514,7.43858224 82.9738314,7.3295 83.3515,7.3295 C83.5055008,7.3295 83.6448327,7.34691649 83.7695,7.38175 C83.8941673,7.41658351 84.0096661,7.46516635 84.116,7.5275 L83.9895,8.259 C83.9638332,8.35066712 83.9070004,8.3965 83.819,8.3965 C83.7676664,8.3965 83.6888339,8.37908351 83.5825,8.34425 C83.4761661,8.30941649 83.3276676,8.292 83.137,8.292 C82.7959983,8.292 82.5109178,8.39099901 82.28175,8.589 C82.0525822,8.78700099 81.8610008,9.07483144 81.707,9.4525 L81.707,13 L80.728,13 Z M86.558,5.1185 L87.4435,5.1185 C87.5388338,5.1185 87.6176664,5.14233309 87.68,5.19 C87.7423336,5.2376669 87.7844999,5.2981663 87.8065,5.3715 L89.4345,10.8495 C89.4638335,10.9485005 89.4904165,11.0548328 89.51425,11.1685 C89.5380835,11.2821672 89.5609999,11.4013327 89.583,11.526 C89.6086668,11.4013327 89.6343332,11.2812506 89.66,11.16575 C89.6856668,11.0502494 89.7149998,10.9448338 89.748,10.8495 L91.6015,5.3715 C91.6235001,5.30916635 91.666583,5.25141693 91.73075,5.19825 C91.794917,5.14508307 91.8728329,5.1185 91.9645,5.1185 L92.2725,5.1185 C92.3678338,5.1185 92.4457497,5.14233309 92.50625,5.19 C92.5667503,5.2376669 92.6098332,5.2981663 92.6355,5.3715 L94.478,10.8495 C94.5440003,11.0401676 94.6026664,11.2583321 94.654,11.504 C94.6760001,11.3829994 94.6961666,11.2675005 94.7145,11.1575 C94.7328334,11.0474994 94.7566665,10.9448338 94.786,10.8495 L96.4195,5.3715 C96.4378334,5.30549967 96.479083,5.24683359 96.54325,5.1955 C96.607417,5.14416641 96.6853329,5.1185 96.777,5.1185 L97.6075,5.1185 L95.149,13 L94.192,13 L92.1955,6.9885 C92.1551665,6.87483276 92.1185002,6.74283408 92.0855,6.5925 C92.0671666,6.6658337 92.0497501,6.73641633 92.03325,6.80425 C92.0167499,6.87208367 91.9993334,6.93349972 91.981,6.9885 L89.9735,13 L89.0165,13 L86.558,5.1185 Z M100.572,7.3405 C100.979002,7.3405 101.346582,7.40833265 101.67475,7.544 C102.002918,7.67966734 102.281582,7.87216542 102.51075,8.1215 C102.739918,8.37083458 102.915916,8.6724149 103.03875,9.02625 C103.161584,9.3800851 103.223,9.77516448 103.223,10.2115 C103.223,10.6515022 103.161584,11.0474982 103.03875,11.3995 C102.915916,11.7515018 102.739918,12.0521654 102.51075,12.3015 C102.281582,12.5508346 102.002918,12.742416 101.67475,12.87625 C101.346582,13.010084 100.979002,13.077 100.572,13.077 C100.164998,13.077 99.7974183,13.010084 99.46925,12.87625 C99.1410817,12.742416 98.8615012,12.5508346 98.6305,12.3015 C98.3994988,12.0521654 98.2216673,11.7515018 98.097,11.3995 C97.9723327,11.0474982 97.91,10.6515022 97.91,10.2115 C97.91,9.77516448 97.9723327,9.3800851 98.097,9.02625 C98.2216673,8.6724149 98.3994988,8.37083458 98.6305,8.1215 C98.8615012,7.87216542 99.1410817,7.67966734 99.46925,7.544 C99.7974183,7.40833265 100.164998,7.3405 100.572,7.3405 L100.572,7.3405 Z M100.572,12.3125 C101.122003,12.3125 101.532665,12.1282518 101.804,11.75975 C102.075335,11.3912482 102.211,10.8770033 102.211,10.217 C102.211,9.55333001 102.075335,9.03633518 101.804,8.666 C101.532665,8.29566481 101.122003,8.1105 100.572,8.1105 C100.293332,8.1105 100.051334,8.15816619 99.846,8.2535 C99.6406656,8.34883381 99.4692507,8.48633243 99.33175,8.666 C99.1942493,8.84566756 99.0915837,9.06658202 99.02375,9.32875 C98.9559163,9.59091798 98.922,9.88699835 98.922,10.217 C98.922,10.5470016 98.9559163,10.8421654 99.02375,11.1025 C99.0915837,11.3628346 99.1942493,11.5819158 99.33175,11.75975 C99.4692507,11.9375842 99.6406656,12.0741662 99.846,12.1695 C100.051334,12.2648338 100.293332,12.3125 100.572,12.3125 L100.572,12.3125 Z M104.433,13 L104.433,7.4285 L104.994,7.4285 C105.100334,7.4285 105.173666,7.44866646 105.214,7.489 C105.254334,7.52933353 105.281833,7.5989995 105.2965,7.698 L105.3625,8.567 C105.553168,8.17833139 105.788749,7.87491776 106.06925,7.65675 C106.349751,7.43858224 106.678831,7.3295 107.0565,7.3295 C107.210501,7.3295 107.349833,7.34691649 107.4745,7.38175 C107.599167,7.41658351 107.714666,7.46516635 107.821,7.5275 L107.6945,8.259 C107.668833,8.35066712 107.612,8.3965 107.524,8.3965 C107.472666,8.3965 107.393834,8.37908351 107.2875,8.34425 C107.181166,8.30941649 107.032668,8.292 106.842,8.292 C106.500998,8.292 106.215918,8.39099901 105.98675,8.589 C105.757582,8.78700099 105.566001,9.07483144 105.412,9.4525 L105.412,13 L104.433,13 Z M109.8835,4.8985 L109.8835,9.667 L110.1365,9.667 C110.209834,9.667 110.270333,9.65691677 110.318,9.63675 C110.365667,9.61658323 110.418833,9.57533364 110.4775,9.513 L112.2375,7.6265 C112.2925,7.56783304 112.3475,7.52016685 112.4025,7.4835 C112.4575,7.44683315 112.530833,7.4285 112.6225,7.4285 L113.5135,7.4285 L111.462,9.612 C111.410666,9.67433364 111.36025,9.72933309 111.31075,9.777 C111.26125,9.8246669 111.205334,9.86683315 111.143,9.9035 C111.209,9.94750022 111.268583,9.99791638 111.32175,10.05475 C111.374917,10.1115836 111.425333,10.1766663 111.473,10.25 L113.651,13 L112.771,13 C112.690333,13 112.621584,12.9844168 112.56475,12.95325 C112.507916,12.9220832 112.453834,12.8735003 112.4025,12.8075 L110.571,10.525 C110.516,10.4479996 110.461,10.3975835 110.406,10.37375 C110.351,10.3499165 110.268501,10.338 110.1585,10.338 L109.8835,10.338 L109.8835,13 L108.899,13 L108.899,4.8985 L109.8835,4.8985 Z M117.82,8.347 C117.776,8.42766707 117.708167,8.468 117.6165,8.468 C117.5615,8.468 117.499167,8.44783353 117.4295,8.4075 C117.359833,8.36716646 117.274584,8.32225025 117.17375,8.27275 C117.072916,8.22324975 116.952834,8.17741688 116.8135,8.13525 C116.674166,8.09308312 116.509168,8.072 116.3185,8.072 C116.153499,8.072 116.005001,8.09308312 115.873,8.13525 C115.740999,8.17741688 115.62825,8.2351663 115.53475,8.3085 C115.44125,8.3818337 115.36975,8.46708285 115.32025,8.56425 C115.27075,8.66141715 115.246,8.76683276 115.246,8.8805 C115.246,9.02350071 115.28725,9.14266619 115.36975,9.238 C115.45225,9.33333381 115.561333,9.41583298 115.697,9.4855 C115.832667,9.55516701 115.986666,9.61658307 116.159,9.66975 C116.331334,9.72291693 116.508249,9.7797497 116.68975,9.84025 C116.871251,9.9007503 117.048166,9.9676663 117.2205,10.041 C117.392834,10.1143337 117.546833,10.2059994 117.6825,10.316 C117.818167,10.4260005 117.92725,10.5607492 118.00975,10.72025 C118.09225,10.8797508 118.1335,11.0713322 118.1335,11.295 C118.1335,11.5516679 118.087667,11.7890822 117.996,12.00725 C117.904333,12.2254178 117.768668,12.4142492 117.589,12.57375 C117.409332,12.7332508 117.189335,12.8588329 116.929,12.9505 C116.668665,13.0421671 116.368002,13.088 116.027,13.088 C115.638331,13.088 115.286335,13.0247506 114.971,12.89825 C114.655665,12.7717494 114.388001,12.609501 114.168,12.4115 L114.399,12.0375 C114.428333,11.9898331 114.463166,11.9531668 114.5035,11.9275 C114.543834,11.9018332 114.597,11.889 114.663,11.889 C114.729,11.889 114.798666,11.9146664 114.872,11.966 C114.945334,12.0173336 115.034249,12.0741664 115.13875,12.1365 C115.243251,12.1988336 115.369749,12.2556664 115.51825,12.307 C115.666751,12.3583336 115.852832,12.384 116.0765,12.384 C116.267168,12.384 116.433999,12.3592502 116.577,12.30975 C116.720001,12.2602498 116.839166,12.1933338 116.9345,12.109 C117.029834,12.0246662 117.100416,11.9275005 117.14625,11.8175 C117.192084,11.7074994 117.215,11.5901673 117.215,11.4655 C117.215,11.3114992 117.17375,11.1840838 117.09125,11.08325 C117.00875,10.9824162 116.899667,10.8962504 116.764,10.82475 C116.628333,10.7532496 116.473418,10.6909169 116.29925,10.63775 C116.125082,10.5845831 115.947251,10.528667 115.76575,10.47 C115.584249,10.411333 115.406418,10.344417 115.23225,10.26925 C115.058082,10.194083 114.903167,10.0996672 114.7675,9.986 C114.631833,9.87233276 114.52275,9.73208417 114.44025,9.56525 C114.35775,9.39841583 114.3165,9.19583452 114.3165,8.9575 C114.3165,8.74483227 114.3605,8.54041765 114.4485,8.34425 C114.5365,8.14808235 114.664832,7.97575074 114.8335,7.82725 C115.002168,7.67874926 115.209332,7.56050044 115.455,7.4725 C115.700668,7.38449956 115.981165,7.3405 116.2965,7.3405 C116.663168,7.3405 116.992249,7.39824942 117.28375,7.51375 C117.575251,7.62925058 117.827332,7.78783232 118.04,7.9895 L117.82,8.347 Z M119.404,14.8865 L119.404,7.4285 L119.987,7.4285 C120.126334,7.4285 120.214333,7.49633265 120.251,7.632 L120.3335,8.292 C120.571835,8.00233188 120.844082,7.76950088 121.15025,7.5935 C121.456418,7.41749912 121.809331,7.3295 122.209,7.3295 C122.528002,7.3295 122.817665,7.39091605 123.078,7.51375 C123.338335,7.63658395 123.560166,7.81808213 123.7435,8.05825 C123.926834,8.29841787 124.068,8.59633155 124.167,8.952 C124.266,9.30766844 124.3155,9.71649769 124.3155,10.1785 C124.3155,10.5891687 124.260501,10.9714149 124.1505,11.32525 C124.040499,11.6790851 123.882834,11.9852487 123.6775,12.24375 C123.472166,12.5022513 123.220085,12.7057493 122.92125,12.85425 C122.622415,13.0027507 122.286002,13.077 121.912,13.077 C121.567332,13.077 121.273085,13.0201672 121.02925,12.9065 C120.785415,12.7928328 120.570001,12.631501 120.383,12.4225 L120.383,14.8865 L119.404,14.8865 Z M121.8845,8.1215 C121.565498,8.1215 121.285918,8.1948326 121.04575,8.3415 C120.805582,8.4881674 120.584668,8.69533199 120.383,8.963 L120.383,11.658 C120.562668,11.9000012 120.759749,12.0704995 120.97425,12.1695 C121.188751,12.2685005 121.427999,12.318 121.692,12.318 C122.209003,12.318 122.606832,12.1328352 122.8855,11.7625 C123.164168,11.3921648 123.3035,10.8641701 123.3035,10.1785 C123.3035,9.81549818 123.271417,9.50383463 123.20725,9.2435 C123.143083,8.98316536 123.050501,8.76958417 122.9295,8.60275 C122.808499,8.43591583 122.660001,8.31400038 122.484,8.237 C122.307999,8.15999961 122.108168,8.1215 121.8845,8.1215 L121.8845,8.1215 Z M129.568,13 L129.1335,13 C129.038166,13 128.961167,12.9853335 128.9025,12.956 C128.843833,12.9266665 128.805333,12.8643338 128.787,12.769 L128.677,12.252 C128.530333,12.3840007 128.387334,12.5022495 128.248,12.60675 C128.108666,12.7112505 127.962001,12.7992496 127.808,12.87075 C127.653999,12.9422504 127.489918,12.9963331 127.31575,13.033 C127.141582,13.0696668 126.948168,13.088 126.7355,13.088 C126.519166,13.088 126.316584,13.0577503 126.12775,12.99725 C125.938916,12.9367497 125.774834,12.8460006 125.6355,12.725 C125.496166,12.6039994 125.38525,12.4509176 125.30275,12.26575 C125.22025,12.0805824 125.179,11.8615013 125.179,11.6085 C125.179,11.3884989 125.239499,11.176751 125.3605,10.97325 C125.481501,10.769749 125.676749,10.5891675 125.94625,10.4315 C126.215751,10.2738325 126.568664,10.1445838 127.005,10.04375 C127.441336,9.94291616 127.97483,9.88516674 128.6055,9.8705 L128.6055,9.436 C128.6055,9.00333117 128.512918,8.67608444 128.32775,8.45425 C128.142582,8.23241556 127.868502,8.1215 127.5055,8.1215 C127.267165,8.1215 127.066417,8.1517497 126.90325,8.21225 C126.740083,8.2727503 126.598917,8.34058296 126.47975,8.41575 C126.360583,8.49091704 126.257917,8.5587497 126.17175,8.61925 C126.085583,8.6797503 126.000334,8.71 125.916,8.71 C125.85,8.71 125.79225,8.69258351 125.74275,8.65775 C125.69325,8.62291649 125.653833,8.57983359 125.6245,8.5285 L125.4485,8.215 C125.756502,7.91799851 126.088332,7.6961674 126.444,7.5495 C126.799668,7.4028326 127.193831,7.3295 127.6265,7.3295 C127.938168,7.3295 128.214999,7.38083282 128.457,7.4835 C128.699001,7.58616718 128.902499,7.72916575 129.0675,7.9125 C129.232501,8.09583425 129.357166,8.31766536 129.4415,8.578 C129.525834,8.83833463 129.568,9.12433177 129.568,9.436 L129.568,13 Z M127.027,12.4005 C127.199334,12.4005 127.356999,12.3830835 127.5,12.34825 C127.643001,12.3134165 127.777749,12.263917 127.90425,12.19975 C128.030751,12.135583 128.151749,12.0576671 128.26725,11.966 C128.382751,11.8743329 128.495499,11.7698339 128.6055,11.6525 L128.6055,10.492 C128.154498,10.5066667 127.771335,10.5424164 127.456,10.59925 C127.140665,10.6560836 126.884001,10.7303329 126.686,10.822 C126.487999,10.9136671 126.344084,11.0218327 126.25425,11.1465 C126.164416,11.2711673 126.1195,11.4104992 126.1195,11.5645 C126.1195,11.7111674 126.143333,11.8376661 126.191,11.944 C126.238667,12.0503339 126.302833,12.1374163 126.3835,12.20525 C126.464167,12.2730837 126.559499,12.3225832 126.6695,12.35375 C126.779501,12.3849168 126.898666,12.4005 127.027,12.4005 L127.027,12.4005 Z M134.8535,8.4185 C134.824167,8.45883353 134.794833,8.48999989 134.7655,8.512 C134.736167,8.53400011 134.694,8.545 134.639,8.545 C134.584,8.545 134.524417,8.52208356 134.46025,8.47625 C134.396083,8.43041644 134.3145,8.38000027 134.2155,8.325 C134.1165,8.26999972 133.996417,8.21958356 133.85525,8.17375 C133.714083,8.12791644 133.540834,8.105 133.3355,8.105 C133.064165,8.105 132.824001,8.15358285 132.615,8.25075 C132.405999,8.34791715 132.230917,8.48816575 132.08975,8.6715 C131.948583,8.85483425 131.84225,9.07666536 131.77075,9.337 C131.69925,9.59733463 131.6635,9.88883172 131.6635,10.2115 C131.6635,10.548835 131.702,10.848582 131.779,11.11075 C131.856,11.372918 131.964166,11.5929158 132.1035,11.77075 C132.242834,11.9485842 132.412416,12.0842495 132.61225,12.17775 C132.812084,12.2712505 133.036665,12.318 133.286,12.318 C133.524335,12.318 133.720499,12.2895836 133.8745,12.23275 C134.028501,12.1759164 134.156833,12.112667 134.2595,12.043 C134.362167,11.973333 134.4465,11.9100836 134.5125,11.85325 C134.5785,11.7964164 134.6445,11.768 134.7105,11.768 C134.794834,11.768 134.857166,11.7991664 134.8975,11.8615 L135.1725,12.219 C134.930499,12.5160015 134.628002,12.7332493 134.265,12.87075 C133.901998,13.0082507 133.518835,13.077 133.1155,13.077 C132.767165,13.077 132.443585,13.012834 132.14475,12.8845 C131.845915,12.756166 131.586501,12.5700846 131.3665,12.32625 C131.146499,12.0824154 130.973251,11.7826684 130.84675,11.427 C130.720249,11.0713316 130.657,10.6661689 130.657,10.2115 C130.657,9.79716459 130.714749,9.41400176 130.83025,9.062 C130.945751,8.70999824 131.114416,8.40658461 131.33625,8.15175 C131.558084,7.89691539 131.832165,7.69800071 132.1585,7.555 C132.484835,7.41199928 132.858831,7.3405 133.2805,7.3405 C133.669169,7.3405 134.013832,7.40374937 134.3145,7.53025 C134.615168,7.65675063 134.880999,7.83549884 135.112,8.0665 L134.8535,8.4185 Z M138.3955,7.3405 C138.729168,7.3405 139.037165,7.39641611 139.3195,7.50825 C139.601835,7.62008389 139.845666,7.78141561 140.051,7.99225 C140.256334,8.20308439 140.416749,8.46341512 140.53225,8.77325 C140.647751,9.08308488 140.7055,9.43599802 140.7055,9.832 C140.7055,9.98600077 140.689,10.0886664 140.656,10.14 C140.623,10.1913336 140.560667,10.217 140.469,10.217 L136.762,10.217 C136.769333,10.5690018 136.817,10.8751654 136.905,11.1355 C136.993,11.3958346 137.113999,11.6130825 137.268,11.78725 C137.422001,11.9614175 137.605332,12.0915829 137.818,12.17775 C138.030668,12.2639171 138.268999,12.307 138.533,12.307 C138.778668,12.307 138.990416,12.2785836 139.16825,12.22175 C139.346084,12.1649164 139.499166,12.1035003 139.6275,12.0375 C139.755834,11.9714997 139.863083,11.9100836 139.94925,11.85325 C140.035417,11.7964164 140.109666,11.768 140.172,11.768 C140.252667,11.768 140.315,11.7991664 140.359,11.8615 L140.634,12.219 C140.512999,12.3656674 140.368168,12.4930828 140.1995,12.60125 C140.030832,12.7094172 139.850251,12.798333 139.65775,12.868 C139.465249,12.937667 139.266334,12.9899165 139.061,13.02475 C138.855666,13.0595835 138.652168,13.077 138.4505,13.077 C138.065498,13.077 137.710752,13.0119173 137.38625,12.88175 C137.061748,12.7515827 136.781251,12.5609179 136.54475,12.30975 C136.308249,12.0585821 136.124001,11.7478352 135.992,11.3775 C135.859999,11.0071648 135.794,10.5818357 135.794,10.1015 C135.794,9.71283139 135.853583,9.34983502 135.97275,9.0125 C136.091917,8.67516498 136.263332,8.38275124 136.487,8.13525 C136.710668,7.88774876 136.983832,7.69341737 137.3065,7.55225 C137.629168,7.41108263 137.992165,7.3405 138.3955,7.3405 L138.3955,7.3405 Z M138.4175,8.061 C137.944498,8.061 137.572335,8.19758197 137.301,8.47075 C137.029665,8.74391803 136.861,9.12249758 136.795,9.6065 L139.8255,9.6065 C139.8255,9.37916553 139.794334,9.17108428 139.732,8.98225 C139.669666,8.79341572 139.578001,8.63025069 139.457,8.49275 C139.335999,8.35524931 139.188418,8.24891704 139.01425,8.17375 C138.840082,8.09858296 138.641168,8.061 138.4175,8.061 L138.4175,8.061 Z" id="Developer-Workspace" fill="#FFFFFF"></path>
                </g>
                <g id="codenvy-logo" transform="translate(2.000000, 4.000000)" fill="#FFFFFF">
                    <path d="M1.19197671,3.89346826 C1.19197671,5.35898721 0,5.45944291 0,5.45944291 L0,6.69508843 C0,6.69508843 1.19197671,6.79574667 1.19197671,8.29002511 L1.19197671,9.49670863 C1.19197671,11.7668858 2.7905697,11.9967592 3.46365108,11.9967592 C3.66013945,11.9967592 3.78625572,11.9823795 3.78625572,11.9823795 L3.78625572,10.9190883 L3.58996503,10.9190883 C3.23929062,10.9190883 2.38395343,10.7898731 2.38395343,9.41063267 L2.38395343,7.93073398 C2.38395343,6.50835426 1.24811625,6.10612643 1.24811625,6.10612643 L1.24811625,6.07736694 C1.24811625,6.07736694 2.38395343,5.73245556 2.38395343,4.25255685 L2.38395343,2.60030374 C2.38395343,1.22106326 3.23929062,1.09184807 3.58996503,1.09184807 L3.78625572,1.09184807 L3.78625572,0.028556962 C3.78625572,0.028556962 3.66013945,0 3.46365108,0 C2.7905697,0 1.19197671,0.22967088 1.19197671,2.51422778 L1.19197671,3.89346826 L1.19197671,3.89346826 Z" transform="translate(1.893128, 5.998380) scale(1, -1) translate(-1.893128, -5.998380) "></path>
                    <path d="M21.8416395,1.09184807 C22.1921163,1.09184807 23.0476511,1.22106326 23.0476511,2.60050627 L23.0476511,4.25275939 C23.0476511,5.73265808 24.1834883,6.07736693 24.1834883,6.07736693 L24.1834883,6.10612642 C24.1834883,6.10612642 23.0476511,6.50835427 23.0476511,7.93073397 L23.0476511,9.41063268 C23.0476511,10.7898731 22.1921163,10.9192909 21.8416395,10.9192909 L21.6453488,10.9192909 L21.6453488,11.9823794 C21.6453488,11.9823794 21.7714651,11.9967592 21.9677558,11.9967592 C22.6408372,11.9967592 24.2394302,11.7668858 24.2394302,9.49691116 L24.2394302,8.29002511 C24.2394302,6.79574666 25.4316046,6.69529097 25.4316046,6.69529097 L25.4316046,5.45964543 C25.4316046,5.45964543 24.2394302,5.35898721 24.2394302,3.89346825 L24.2394302,2.51422779 C24.2394302,0.229873413 22.6408372,8.8817842e-16 21.9677558,8.8817842e-16 C21.7714651,8.8817842e-16 21.6453488,0.0287594932 21.6453488,0.0287594932 L21.6453488,1.09184807 L21.8416395,1.09184807 L21.8416395,1.09184807 Z" transform="translate(23.538477, 5.998380) scale(1, -1) translate(-23.538477, -5.998380) "></path>
                    <path d="M9.59748828,7.64344289 C8.30311623,7.64344289 7.2503023,6.56455684 7.2503023,5.23858219 C7.2503023,3.912405 8.30311623,2.83351896 9.59748828,2.83351896 L16.3105114,2.83351896 C17.36293,2.83351896 18.2192555,3.71088602 18.2192555,4.789367 C18.2192555,5.80384799 17.4465462,6.65994924 16.4603486,6.73812645 L16.1527672,6.76263279 L15.9983835,7.03625303 C15.6680695,7.62136694 15.0786044,7.98673401 14.4215347,8.01306314 L14.0459533,8.02825301 L13.902837,8.3841011 C13.6067207,9.11989855 12.9138719,9.59524031 12.1376045,9.59524031 C11.2524185,9.59524031 10.4897906,8.98035424 10.2824301,8.09994921 L10.1699534,7.62197454 L9.69039527,7.64080998 C9.65955806,7.64202517 9.62872085,7.64344289 9.59748828,7.64344289 M16.3105114,1.63291139 L9.59748828,1.63291139 C7.65711624,1.63291139 6.07848837,3.2505316 6.07848837,5.23858219 C6.07848837,7.11827835 7.48968601,8.66663273 9.28358131,8.82987324 C9.74831386,10.0073922 10.864779,10.7958479 12.1376045,10.7958479 C13.2683021,10.7958479 14.2890928,10.1712403 14.8285463,9.17660741 C15.6437556,9.04556943 16.36843,8.58744286 16.8497672,7.89640491 C17.5060462,7.77772137 18.1071741,7.4437467 18.5667671,6.93762011 C19.0983136,6.35230368 19.3910694,5.58936699 19.3910694,4.789367 C19.3910694,3.04881009 18.0091276,1.63291139 16.3105114,1.63291139" transform="translate(12.734779, 6.214380) scale(1, -1) translate(-12.734779, -6.214380) "></path>
                </g>
            </g>
        </g>
    </g>
</svg>
